<svg width="221" height="154" viewBox="0 0 221 154" fill="none" xmlns="http://www.w3.org/2000/svg">
<path d="M0 14.4521C0 6.47044 6.47044 0 14.4521 0H206.548C214.53 0 221 6.47044 221 14.4521V139.548C221 147.53 214.53 154 206.548 154H14.4521C6.47044 154 0 147.53 0 139.548V14.4521Z" fill="white"/>
<g filter="url(#filter0_d_511_329)">
<rect x="19.3018" y="18.5894" width="186.793" height="25.0521" rx="8.71379" fill="#AADEED"/>
</g>
<ellipse cx="192.085" cy="30.5709" rx="5.83727" ry="5.44612" fill="white"/>
<path d="M51.415 33.3405C51.415 32.6302 51.5506 31.9931 51.8216 31.4293C52.0927 30.86 52.4885 30.2907 53.009 29.7214L53.4726 30.1931C53.0822 30.6214 52.7705 31.1012 52.5373 31.6326C52.3096 32.1639 52.1958 32.7332 52.1958 33.3405C52.1958 33.9532 52.3096 34.5225 52.5373 35.0484C52.7705 35.5797 53.0822 36.0596 53.4726 36.4879L53.009 36.9596C52.4885 36.3903 52.0927 35.8237 51.8216 35.2599C51.5506 34.696 51.415 34.0562 51.415 33.3405ZM55.3238 34.6418C54.9497 34.6418 54.6434 34.5631 54.4048 34.4059C54.1716 34.2487 54.0551 33.9965 54.0551 33.6495C54.0551 33.4056 54.1093 33.148 54.2177 32.8769C54.3262 32.6058 54.5241 32.2507 54.8114 31.8115L54.4943 31.5594L54.844 30.803L54.9416 30.7868L55.7142 31.4049C56.1479 31.7519 56.457 32.0555 56.6413 32.3158C56.8311 32.5706 56.9287 32.8579 56.9341 33.1778C56.9341 33.4977 56.8609 33.7688 56.7145 33.9911C56.5681 34.208 56.3702 34.3707 56.1208 34.4791C55.8768 34.5875 55.6112 34.6418 55.3238 34.6418ZM55.397 33.6821C55.6356 33.6821 55.8335 33.6523 55.9907 33.5926C56.1534 33.5276 56.2781 33.4164 56.3648 33.2592C56.2997 33.1128 56.1859 32.9582 56.0232 32.7956C55.8606 32.6329 55.6085 32.4133 55.2669 32.1368C55.0554 32.4567 54.9036 32.7034 54.8114 32.8769C54.7247 33.0504 54.6813 33.1968 54.6813 33.3161C54.6813 33.5601 54.9199 33.6821 55.397 33.6821ZM58.9574 34.6418C58.5832 34.6418 58.3067 34.574 58.1278 34.4384C57.9489 34.2975 57.8594 34.0616 57.8594 33.7309C57.8594 33.6387 57.8621 33.5682 57.8675 33.5194L57.9326 32.8444L58.4287 32.7712L58.4694 32.82L58.445 33.2998C58.4341 33.4516 58.4748 33.5465 58.567 33.5845C58.6591 33.6224 58.8381 33.6414 59.1037 33.6414C59.2827 33.6414 59.4643 33.6197 59.6486 33.5763C59.8384 33.533 60.0011 33.476 60.1366 33.4056L59.8845 31.1121L60.4863 30.6729L60.5677 30.7136L60.7547 32.6004C60.7818 32.8661 60.8279 33.0694 60.893 33.2104C60.958 33.3459 61.0421 33.4381 61.1451 33.4869C61.2481 33.5303 61.3809 33.5519 61.5436 33.5519H61.7795C61.8337 33.5519 61.8771 33.6007 61.9096 33.6983C61.9475 33.7905 61.9665 33.9071 61.9665 34.0481C61.9665 34.189 61.9475 34.311 61.9096 34.414C61.8771 34.5116 61.8337 34.5604 61.7795 34.5604H61.4623C61.2291 34.5604 61.0258 34.517 60.8523 34.4303C60.6842 34.3381 60.5595 34.2134 60.4782 34.0562C60.3589 34.2351 60.1447 34.3788 59.8357 34.4872C59.5321 34.5902 59.2393 34.6418 58.9574 34.6418ZM61.7819 34.5604C61.7277 34.5604 61.6843 34.5116 61.6517 34.414C61.6138 34.311 61.5948 34.189 61.5948 34.0481C61.5948 33.9071 61.6138 33.7905 61.6517 33.6983C61.6843 33.6007 61.7277 33.5519 61.7819 33.5519H62.3024C62.6006 33.5519 62.8202 33.5221 62.9611 33.4625C63.1021 33.3974 63.1889 33.2754 63.2214 33.0965L63.3922 32.21L63.4735 32.1531L64.0021 32.2914L63.8883 33.0152C63.8666 33.1616 63.91 33.289 64.0184 33.3974C64.1268 33.5004 64.2868 33.5519 64.4982 33.5519H64.7829C64.8371 33.5519 64.8805 33.6007 64.913 33.6983C64.951 33.7905 64.97 33.9071 64.97 34.0481C64.97 34.189 64.951 34.311 64.913 34.414C64.8805 34.5116 64.8371 34.5604 64.7829 34.5604H64.4657C64.2217 34.5604 64.0157 34.5143 63.8476 34.4222C63.6795 34.33 63.5548 34.1999 63.4735 34.0318C63.338 34.227 63.1726 34.3652 62.9774 34.4466C62.7876 34.5225 62.5545 34.5604 62.278 34.5604H61.7819ZM62.4406 31.2016V31.0714L62.7415 30.4289L63.506 30.7868V30.9088L63.2051 31.5431L62.4406 31.2016ZM64.784 34.5604C64.7298 34.5604 64.6864 34.5116 64.6539 34.414C64.616 34.311 64.597 34.189 64.597 34.0481C64.597 33.9071 64.616 33.7905 64.6539 33.6983C64.6864 33.6007 64.7298 33.5519 64.784 33.5519C65.516 33.5519 66.0365 33.4598 66.3456 33.2754L66.1341 31.8928L66.8173 31.4618L66.8905 31.5025C66.9447 31.8712 66.988 32.1965 67.0206 32.4784C67.0531 32.7604 67.0694 32.9745 67.0694 33.1209C67.0694 33.598 66.9094 33.9505 66.5895 34.1782C66.3781 34.3246 66.1205 34.4249 65.8169 34.4791C65.5133 34.5333 65.169 34.5604 64.784 34.5604ZM65.5648 30.5347V30.4045L65.8657 29.762L66.6302 30.1199V30.2419L66.3293 30.8762L65.5648 30.5347ZM68.0176 34.5848C68.0555 34.1836 68.0745 33.7742 68.0745 33.3568V33.0884L68.0338 29.2415L68.7414 29.0626V32.9745C68.7414 33.3269 68.7278 33.5953 68.7007 33.7797C68.6736 33.964 68.6167 34.208 68.5299 34.5116L68.0664 34.6418L68.0176 34.5848ZM69.2897 36.4554C69.2626 36.4608 69.2246 36.4635 69.1759 36.4635C68.9807 36.4635 68.7367 36.393 68.4439 36.2521L68.265 35.6421L68.3138 35.577C68.4222 35.5879 68.5225 35.5933 68.6147 35.5933C68.6797 35.5933 68.7828 35.5879 68.9237 35.577C69.2328 35.5499 69.4849 35.4252 69.6801 35.2029C69.8753 34.9806 70.0081 34.7312 70.0786 34.4547C70.0461 34.1619 69.9349 33.4625 69.7452 32.3564L70.3551 31.966L70.4446 32.023C70.553 32.6031 70.6289 33.0504 70.6723 33.3649C70.7157 33.6794 70.7374 33.9396 70.7374 34.1456C70.7374 34.5414 70.6642 34.9128 70.5178 35.2599C70.3714 35.6069 70.1843 35.8861 69.9566 36.0975C69.7343 36.3144 69.512 36.4337 69.2897 36.4554ZM74.6321 34.5604C74.0628 34.5604 73.6561 34.4493 73.4121 34.227C73.1681 33.9993 73.0434 33.6414 73.038 33.1534L72.9973 29.2415L73.6968 29.0626V32.8119C73.6968 33.0233 73.7239 33.1805 73.7781 33.2836C73.8377 33.3866 73.9326 33.4571 74.0628 33.495C74.1929 33.533 74.3826 33.5519 74.6321 33.5519C74.8652 33.5519 75.0712 33.5303 75.2502 33.4869C75.4345 33.4435 75.6026 33.373 75.7544 33.2754L75.5348 31.8928L76.218 31.4618L76.2993 31.5025L76.3644 31.9986C76.4403 32.5462 76.4782 32.9203 76.4782 33.1209C76.4782 33.5384 76.3698 33.8556 76.1529 34.0725C75.8384 34.3978 75.3315 34.5604 74.6321 34.5604ZM74.1685 36.0569V35.9267L74.4694 35.2842L75.2339 35.6421V35.7641L74.933 36.3985L74.1685 36.0569ZM80.0083 34.6418C79.6342 34.6418 79.3279 34.5631 79.0893 34.4059C78.8562 34.2487 78.7396 33.9965 78.7396 33.6495C78.7396 33.4056 78.7938 33.148 78.9023 32.8769C79.0107 32.6058 79.2086 32.2507 79.496 31.8115L79.1788 31.5594L79.5285 30.803L79.6261 30.7868L80.3987 31.4049C80.8325 31.7519 81.1415 32.0555 81.3258 32.3158C81.5156 32.5706 81.6132 32.8579 81.6186 33.1778C81.6186 33.4977 81.5454 33.7688 81.399 33.9911C81.2527 34.208 81.0548 34.3707 80.8053 34.4791C80.5614 34.5875 80.2957 34.6418 80.0083 34.6418ZM80.0815 33.6821C80.3201 33.6821 80.518 33.6523 80.6752 33.5926C80.8379 33.5276 80.9626 33.4164 81.0493 33.2592C80.9843 33.1128 80.8704 32.9582 80.7078 32.7956C80.5451 32.6329 80.293 32.4133 79.9514 32.1368C79.7399 32.4567 79.5881 32.7034 79.496 32.8769C79.4092 33.0504 79.3658 33.1968 79.3658 33.3161C79.3658 33.5601 79.6044 33.6821 80.0815 33.6821ZM82.4883 34.5848C82.5263 34.1836 82.5453 33.7742 82.5453 33.3568V33.0884L82.5046 29.2415L83.2122 29.0626V32.9745C83.2122 33.3269 83.1986 33.5953 83.1715 33.7797C83.1444 33.964 83.0875 34.208 83.0007 34.5116L82.5371 34.6418L82.4883 34.5848ZM83.7605 36.4554C83.7334 36.4608 83.6954 36.4635 83.6466 36.4635C83.4515 36.4635 83.2075 36.393 82.9147 36.2521L82.7358 35.6421L82.7764 35.577C82.8849 35.5879 82.9879 35.5933 83.0855 35.5933C83.1505 35.5933 83.2536 35.5879 83.3945 35.577C83.6981 35.5499 83.9476 35.4252 84.1427 35.2029C84.3434 34.9806 84.4789 34.7312 84.5494 34.4547C84.5169 34.1294 84.403 33.43 84.2078 32.3564L84.8259 31.966L84.9154 32.023L85.0536 32.8281C85.1078 33.1101 85.1865 33.3025 85.2895 33.4056C85.3979 33.5032 85.5768 33.5519 85.8262 33.5519H86.0784C86.1326 33.5519 86.176 33.6007 86.2085 33.6983C86.2464 33.7905 86.2654 33.9071 86.2654 34.0481C86.2654 34.189 86.2464 34.311 86.2085 34.414C86.176 34.5116 86.1326 34.5604 86.0784 34.5604H85.8425C85.5768 34.5604 85.3573 34.4981 85.1838 34.3734L85.1756 34.4222C85.1485 34.78 85.059 35.1107 84.9072 35.4144C84.7608 35.718 84.5819 35.962 84.3705 36.1463C84.1644 36.3307 83.9611 36.4337 83.7605 36.4554ZM89.3466 34.6418C88.9075 34.6418 88.4927 34.5957 88.1023 34.5035C87.7173 34.4059 87.4002 34.2514 87.1508 34.0399C87.0261 34.2188 86.8986 34.3517 86.7685 34.4384C86.6384 34.5198 86.4486 34.5604 86.1992 34.5604H86.0772C86.023 34.5604 85.9796 34.5116 85.9471 34.414C85.9091 34.311 85.8902 34.189 85.8902 34.0481C85.8902 33.9071 85.9091 33.7905 85.9471 33.6983C85.9796 33.6007 86.023 33.5519 86.0772 33.5519H86.2399C86.4622 33.5519 86.6411 33.5004 86.7766 33.3974C86.9122 33.2944 87.0288 33.1561 87.1264 32.9826L87.5818 32.1775C87.8041 31.7925 88.1104 31.6001 88.5008 31.6001C88.8532 31.6001 89.184 31.7221 89.493 31.966L89.6963 32.7875C89.7777 33.0802 89.8861 33.2809 90.0217 33.3893C90.1626 33.4977 90.3849 33.5519 90.6886 33.5519C90.7428 33.5519 90.7862 33.6007 90.8187 33.6983C90.8566 33.7905 90.8756 33.9071 90.8756 34.0481C90.8756 34.189 90.8566 34.311 90.8187 34.414C90.7862 34.5116 90.7428 34.5604 90.6886 34.5604H90.5666C90.4039 34.5604 90.2358 34.5252 90.0623 34.4547C89.8942 34.3788 89.756 34.2676 89.6475 34.1212L89.615 34.1782L89.3466 34.6418ZM89.1514 33.739C89.1135 33.3866 89.043 33.0098 88.94 32.6085C88.7936 32.5272 88.6282 32.4865 88.4439 32.4865C88.2812 32.4865 88.1511 32.5381 88.0535 32.6411C87.9613 32.7441 87.8746 32.8688 87.7933 33.0152C87.7119 33.1561 87.6577 33.251 87.6306 33.2998C87.7553 33.4083 87.9613 33.5059 88.2487 33.5926C88.5415 33.6794 88.8424 33.7282 89.1514 33.739ZM90.6917 34.5604C90.6375 34.5604 90.5941 34.5116 90.5615 34.414C90.5236 34.311 90.5046 34.189 90.5046 34.0481C90.5046 33.9071 90.5236 33.7905 90.5615 33.6983C90.5941 33.6007 90.6375 33.5519 90.6917 33.5519H90.9763C91.1932 33.5519 91.4101 33.5438 91.6269 33.5276C91.5077 33.3649 91.448 33.1833 91.448 32.9826C91.448 32.8417 91.4751 32.6899 91.5294 32.5272C91.6432 32.1206 91.7598 31.8224 91.8791 31.6326L91.5538 31.5269L91.7408 30.7542L91.8384 30.6973L93.7659 31.3154C94.2105 31.4564 94.5602 31.6136 94.815 31.7871C95.0699 31.9606 95.2515 32.1694 95.3599 32.4133C95.4738 32.6519 95.5334 32.9528 95.5389 33.3161C95.5389 33.5167 95.528 33.7065 95.5063 33.8854L95.0428 34.5686L93.5382 34.3896C93.1424 34.3463 92.8387 34.292 92.6273 34.227C92.1502 34.4493 91.6134 34.5604 91.017 34.5604H90.6917ZM92.7981 33.3405C92.9824 33.2266 93.1288 33.0992 93.2373 32.9582C93.3457 32.8173 93.3999 32.6872 93.3999 32.5679C93.3999 32.4161 93.3403 32.2859 93.221 32.1775C93.1071 32.0636 92.9418 31.9823 92.7249 31.9335C92.6219 31.9064 92.4999 31.8874 92.3589 31.8766C92.3155 31.9416 92.2667 32.0365 92.2125 32.1612C92.1637 32.2859 92.1203 32.4215 92.0824 32.5679C92.0715 32.6546 92.0661 32.7088 92.0661 32.7305C92.0661 32.8932 92.1312 33.0233 92.2613 33.1209C92.3914 33.2131 92.5704 33.2863 92.7981 33.3405ZM94.9208 33.6495C94.9208 33.4706 94.9153 33.3378 94.9045 33.251C94.8828 33.0342 94.8177 32.8552 94.7093 32.7143C94.6009 32.5679 94.4165 32.4513 94.1563 32.3646L93.9123 32.2832C93.9177 32.332 93.9204 32.4079 93.9204 32.5109C93.9042 32.8634 93.8011 33.1833 93.6114 33.4706C93.7144 33.4923 93.7984 33.5059 93.8635 33.5113L94.9208 33.6495ZM98.1786 33.3405C98.1786 34.0562 98.0431 34.696 97.772 35.2599C97.5009 35.8237 97.1051 36.3903 96.5846 36.9596L96.121 36.4879C96.5114 36.0596 96.8204 35.5797 97.0481 35.0484C97.2813 34.5225 97.3979 33.9532 97.3979 33.3405C97.3979 32.7332 97.2813 32.1639 97.0481 31.6326C96.8204 31.1012 96.5114 30.6214 96.121 30.1931L96.5846 29.7214C97.1051 30.2907 97.5009 30.8573 97.772 31.4211C98.0431 31.985 98.1786 32.6248 98.1786 33.3405ZM106.118 34.5604C105.703 34.5604 105.356 34.4726 105.076 34.2968C104.804 34.1131 104.593 33.8216 104.441 33.4222L104.129 34.1171C103.842 34.157 103.502 34.177 103.111 34.177C102.496 34.177 102.021 34.0652 101.685 33.8415C101.358 33.6099 101.194 33.2584 101.194 32.7872C101.194 32.2999 101.338 31.8566 101.625 31.4572C101.921 31.0499 102.4 30.6864 103.063 30.3669L104.189 29.8277V29.013L105.244 28.7135V32.1761C105.244 32.4796 105.316 32.7073 105.459 32.8591C105.603 33.0028 105.831 33.0747 106.142 33.0747H106.526C106.606 33.0747 106.67 33.1466 106.717 33.2904C106.773 33.4262 106.801 33.5979 106.801 33.8056C106.801 34.0133 106.773 34.193 106.717 34.3448C106.67 34.4885 106.606 34.5604 106.526 34.5604H106.118ZM104.189 32.8111V31.0019L103.554 31.2895L102.117 31.9365C102.101 32.0643 102.093 32.1522 102.093 32.2001C102.093 32.3678 102.137 32.4956 102.224 32.5835C102.312 32.6713 102.452 32.7313 102.644 32.7632C102.843 32.7952 103.127 32.8111 103.494 32.8111H104.189ZM106.528 34.5604C106.448 34.5604 106.384 34.4885 106.336 34.3448C106.28 34.193 106.252 34.0133 106.252 33.8056C106.252 33.5979 106.28 33.4262 106.336 33.2904C106.384 33.1466 106.448 33.0747 106.528 33.0747H107.295C107.734 33.0747 108.058 33.0308 108.265 32.9429C108.473 32.8471 108.601 32.6674 108.649 32.4038L108.9 31.0978L109.02 31.0139L109.799 31.2176L109.631 32.2839C109.599 32.4996 109.663 32.6873 109.823 32.8471C109.983 32.9988 110.218 33.0747 110.53 33.0747H110.949C111.029 33.0747 111.093 33.1466 111.141 33.2904C111.197 33.4262 111.225 33.5979 111.225 33.8056C111.225 34.0133 111.197 34.193 111.141 34.3448C111.093 34.4885 111.029 34.5604 110.949 34.5604H110.482C110.122 34.5604 109.819 34.4925 109.571 34.3567C109.324 34.221 109.14 34.0292 109.02 33.7816C108.82 34.0692 108.577 34.2729 108.289 34.3927C108.01 34.5045 107.666 34.5604 107.259 34.5604H106.528ZM108.649 36.7051V36.5254L109.056 35.6627L110.087 36.154V36.3097L109.679 37.1724L108.649 36.7051ZM106.935 36.801V36.6212L107.343 35.7586L108.373 36.2498V36.4056L107.966 37.2682L106.935 36.801ZM110.675 33.8056C110.675 33.5979 110.703 33.4262 110.759 33.2904C110.807 33.1466 110.871 33.0747 110.951 33.0747C111.087 33.0747 111.183 33.0707 111.238 33.0627C111.885 33.0388 112.365 32.9309 112.676 32.7392L112.616 26.7246L113.647 26.461V31.9844C113.647 32.4078 113.727 32.6953 113.886 32.8471C114.054 32.9988 114.35 33.0747 114.773 33.0747H115.216C115.296 33.0747 115.36 33.1466 115.408 33.2904C115.464 33.4262 115.492 33.5979 115.492 33.8056C115.492 34.0133 115.464 34.193 115.408 34.3448C115.36 34.4885 115.296 34.5604 115.216 34.5604H114.785C113.986 34.5604 113.431 34.3368 113.12 33.8895C112.912 34.0892 112.648 34.2449 112.329 34.3567C112.009 34.4686 111.658 34.5325 111.274 34.5484C111.202 34.5564 111.095 34.5604 110.951 34.5604C110.871 34.5604 110.807 34.4885 110.759 34.3448C110.703 34.193 110.675 34.0133 110.675 33.8056ZM115.222 34.5604C115.142 34.5604 115.078 34.4885 115.03 34.3448C114.974 34.193 114.946 34.0133 114.946 33.8056C114.946 33.5979 114.974 33.4262 115.03 33.2904C115.078 33.1466 115.142 33.0747 115.222 33.0747H115.665C115.897 33.0747 116.14 33.0627 116.396 33.0388C116.268 32.8071 116.204 32.5555 116.204 32.2839C116.204 32.1002 116.232 31.9125 116.288 31.7208C116.4 31.2895 116.508 30.938 116.611 30.6665C116.715 30.3869 116.867 30.1393 117.067 29.9236C117.266 29.6999 117.522 29.5881 117.834 29.5881C118.584 29.5881 119.144 29.7758 119.511 30.1512C119.886 30.5267 120.074 30.982 120.074 31.5171C120.074 31.9884 119.926 32.5036 119.631 33.0627L120.074 33.0747H120.901C120.973 33.0747 121.037 33.1466 121.093 33.2904C121.148 33.4342 121.176 33.6059 121.176 33.8056C121.176 34.0133 121.148 34.193 121.093 34.3448C121.037 34.4885 120.973 34.5604 120.901 34.5604H120.05C119.164 34.5604 118.401 34.4406 117.762 34.201C117.139 34.4246 116.472 34.5444 115.761 34.5604H115.222ZM118.253 32.9429C118.908 32.4796 119.235 32.0803 119.235 31.7448C119.235 31.4652 119.124 31.2495 118.9 31.0978C118.684 30.946 118.313 30.8422 117.786 30.7863L117.45 30.7503C117.37 30.982 117.326 31.1018 117.318 31.1098C117.175 31.5091 117.103 31.7887 117.103 31.9485C117.103 32.4357 117.486 32.7672 118.253 32.9429ZM118.133 28.1863V28.0185L118.54 27.1439L119.571 27.6351V27.8029L119.164 28.6536L118.133 28.1863ZM116.42 28.2821V28.1144L116.827 27.2398L117.858 27.731V27.8987L117.45 28.7494L116.42 28.2821ZM120.896 34.5604C120.817 34.5604 120.753 34.4885 120.705 34.3448C120.649 34.193 120.621 34.0133 120.621 33.8056C120.621 33.5979 120.649 33.4262 120.705 33.2904C120.753 33.1466 120.817 33.0747 120.896 33.0747C121.975 33.0747 122.742 32.9389 123.197 32.6674L122.885 30.6305L123.892 29.9955L124 30.0554C124.079 30.5986 124.143 31.0778 124.191 31.4932C124.239 31.9085 124.263 32.224 124.263 32.4397C124.263 33.1426 124.028 33.6618 123.556 33.9973C123.245 34.213 122.865 34.3607 122.418 34.4406C121.971 34.5205 121.464 34.5604 120.896 34.5604ZM122.047 28.6296V28.4379L122.49 27.4914L123.616 28.0185V28.1983L123.173 29.1328L122.047 28.6296ZM132.527 34.5604C132.111 34.5604 131.764 34.4726 131.484 34.2968C131.213 34.1131 131.001 33.8216 130.849 33.4222L130.538 34.1171C130.25 34.157 129.911 34.177 129.519 34.177C128.904 34.177 128.429 34.0652 128.094 33.8415C127.766 33.6099 127.602 33.2584 127.602 32.7872C127.602 32.2999 127.746 31.8566 128.034 31.4572C128.329 31.0499 128.809 30.6864 129.471 30.3669L130.598 29.8277V29.013L131.652 28.7135V32.1761C131.652 32.4796 131.724 32.7073 131.868 32.8591C132.012 33.0028 132.239 33.0747 132.551 33.0747H132.934C133.014 33.0747 133.078 33.1466 133.126 33.2904C133.182 33.4262 133.21 33.5979 133.21 33.8056C133.21 34.0133 133.182 34.193 133.126 34.3448C133.078 34.4885 133.014 34.5604 132.934 34.5604H132.527ZM130.598 32.8111V31.0019L129.963 31.2895L128.525 31.9365C128.509 32.0643 128.501 32.1522 128.501 32.2001C128.501 32.3678 128.545 32.4956 128.633 32.5835C128.721 32.6713 128.86 32.7313 129.052 32.7632C129.252 32.7952 129.535 32.8111 129.903 32.8111H130.598ZM132.661 33.8056C132.661 33.5979 132.689 33.4262 132.745 33.2904C132.793 33.1466 132.857 33.0747 132.936 33.0747C133.072 33.0747 133.168 33.0707 133.224 33.0627C133.871 33.0388 134.35 32.9309 134.662 32.7392L134.602 26.7246L135.632 26.461V31.9844C135.632 32.4078 135.712 32.6953 135.872 32.8471C136.04 32.9988 136.335 33.0747 136.758 33.0747H137.202C137.282 33.0747 137.346 33.1466 137.393 33.2904C137.449 33.4262 137.477 33.5979 137.477 33.8056C137.477 34.0133 137.449 34.193 137.393 34.3448C137.346 34.4885 137.282 34.5604 137.202 34.5604H136.77C135.972 34.5604 135.417 34.3368 135.105 33.8895C134.897 34.0892 134.634 34.2449 134.314 34.3567C133.995 34.4686 133.643 34.5325 133.26 34.5484C133.188 34.5564 133.08 34.5604 132.936 34.5604C132.857 34.5604 132.793 34.4885 132.745 34.3448C132.689 34.193 132.661 34.0133 132.661 33.8056ZM137.207 34.5604C137.127 34.5604 137.063 34.4885 137.015 34.3448C136.959 34.193 136.932 34.0133 136.932 33.8056C136.932 33.5979 136.959 33.4262 137.015 33.2904C137.063 33.1466 137.127 33.0747 137.207 33.0747H138.13C138.609 33.0747 138.908 33.0108 139.028 32.883L138.765 31.0858L139.532 30.4987L139.663 30.5586L139.855 31.8886C139.919 32.3518 140.051 32.6674 140.25 32.8351C140.45 32.9948 140.774 33.0747 141.221 33.0747H141.652C141.732 33.0747 141.796 33.1466 141.844 33.2904C141.9 33.4262 141.928 33.5979 141.928 33.8056C141.928 34.0133 141.9 34.193 141.844 34.3448C141.796 34.4885 141.732 34.5604 141.652 34.5604H141.257C140.826 34.5604 140.482 34.5045 140.226 34.3927C139.971 34.2729 139.771 34.0931 139.627 33.8535C139.484 34.0692 139.288 34.2409 139.04 34.3687C138.793 34.4965 138.513 34.5604 138.202 34.5604H137.207ZM139.328 36.7051V36.5254L139.735 35.6627L140.766 36.154V36.3097L140.358 37.1724L139.328 36.7051ZM137.614 36.801V36.6212L138.022 35.7586L139.052 36.2498V36.4056L138.645 37.2682L137.614 36.801ZM141.653 34.5604C141.573 34.5604 141.51 34.4885 141.462 34.3448C141.406 34.193 141.378 34.0133 141.378 33.8056C141.378 33.5979 141.406 33.4262 141.462 33.2904C141.51 33.1466 141.573 33.0747 141.653 33.0747H142.169C142.592 33.0747 142.907 33.0108 143.115 32.883C143.323 32.7472 143.491 32.5036 143.618 32.1522L143.99 31.0738L144.134 31.0139L144.876 31.3015L144.553 32.3439C144.497 32.5036 144.465 32.6074 144.457 32.6554C144.713 32.9349 145.144 33.0747 145.751 33.0747C146.278 33.0747 146.642 32.9988 146.841 32.8471C147.049 32.6953 147.157 32.4517 147.165 32.1162L147.189 31.4812L148.075 31.4572V32.871C148.323 33.0068 148.607 33.0747 148.926 33.0747C149.206 33.0747 149.425 33.0108 149.585 32.883L149.25 30.6305L150.256 29.9955L150.376 30.0554L150.448 30.6425C150.528 31.3454 150.568 31.6809 150.568 31.6489C150.608 31.9684 150.627 32.232 150.627 32.4397C150.627 32.895 150.544 33.2744 150.376 33.5779C150.216 33.8895 149.992 34.1331 149.705 34.3088C149.417 34.4766 149.102 34.5604 148.758 34.5604C148.479 34.5604 148.211 34.5165 147.956 34.4286C147.708 34.3328 147.52 34.201 147.392 34.0332C147.233 34.193 147.005 34.3208 146.71 34.4166C146.422 34.5125 146.106 34.5604 145.763 34.5604C145.3 34.5604 144.912 34.4925 144.601 34.3567C144.289 34.221 144.062 34.0332 143.918 33.7936C143.766 34.0652 143.55 34.2609 143.271 34.3807C142.991 34.5005 142.636 34.5604 142.205 34.5604H141.653ZM153.446 37.3761C153.294 37.392 153.086 37.3681 152.823 37.3042C152.559 37.2403 152.216 37.1444 151.792 37.0166L151.529 36.106L151.601 36.0222C152.288 36.0701 152.735 36.0861 152.943 36.0701C153.454 36.0302 153.889 35.8305 154.249 35.471C154.616 35.1116 154.884 34.7242 155.051 34.3088C154.516 34.4366 153.965 34.5005 153.398 34.5005C152.951 34.5005 152.603 34.3967 152.356 34.189C152.116 33.9733 151.996 33.6538 151.996 33.2305L152.008 32.9789C152.104 32.0763 152.308 31.3893 152.619 30.9181C152.939 30.4468 153.362 30.2112 153.889 30.2112C154.304 30.2112 154.636 30.303 154.884 30.4867C155.139 30.6625 155.351 30.8981 155.519 31.1936C155.678 31.4652 155.806 31.8287 155.902 32.2839C155.998 32.7313 156.046 33.1866 156.046 33.6498C156.046 34.2888 155.91 34.8839 155.638 35.4351C155.375 35.9942 155.039 36.4455 154.632 36.789C154.225 37.1404 153.829 37.3361 153.446 37.3761ZM153.638 33.1945C154.149 33.1945 154.612 33.1666 155.027 33.1107C154.971 32.7992 154.9 32.4996 154.812 32.2121C154.724 31.9245 154.64 31.6929 154.56 31.5171C154.289 31.4452 154.049 31.4093 153.841 31.4093C153.554 31.4093 153.338 31.4932 153.194 31.6609C153.058 31.8287 152.967 32.1601 152.919 32.6554V32.7632C152.911 32.9469 152.959 33.0667 153.062 33.1226C153.174 33.1706 153.366 33.1945 153.638 33.1945ZM161.25 34.6802C160.699 34.6802 160.248 34.5644 159.897 34.3328C159.553 34.1011 159.381 33.7297 159.381 33.2185C159.381 32.8591 159.461 32.4796 159.621 32.0803C159.781 31.6809 160.072 31.1577 160.496 30.5107L160.028 30.1393L160.544 29.025L160.687 29.001L161.826 29.9116C162.465 30.4228 162.92 30.8701 163.191 31.2535C163.471 31.629 163.615 32.0523 163.623 32.5236C163.623 32.9948 163.515 33.3942 163.299 33.7217C163.084 34.0412 162.792 34.2809 162.425 34.4406C162.065 34.6004 161.674 34.6802 161.25 34.6802ZM161.358 33.2664C161.71 33.2664 162.001 33.2225 162.233 33.1346C162.473 33.0388 162.656 32.875 162.784 32.6434C162.688 32.4277 162.52 32.2001 162.281 31.9604C162.041 31.7208 161.67 31.3973 161.167 30.99C160.855 31.4612 160.631 31.8247 160.496 32.0803C160.368 32.3359 160.304 32.5515 160.304 32.7273C160.304 33.0867 160.655 33.2664 161.358 33.2664ZM164.328 37.3761C164.168 37.392 163.928 37.3561 163.609 37.2682C163.297 37.1884 163.046 37.1045 162.854 37.0166L162.59 36.106L162.65 36.0222C163.106 36.0621 163.425 36.0821 163.609 36.0821C164.2 36.0821 164.679 35.9063 165.047 35.5549C165.414 35.2114 165.682 34.828 165.849 34.4047C165.761 33.6938 165.594 32.6634 165.346 31.3134L166.257 30.7383L166.389 30.8222C166.548 31.6849 166.656 32.3478 166.712 32.8111C166.776 33.2744 166.808 33.6538 166.808 33.9494C166.808 34.5325 166.68 35.0796 166.424 35.5908C166.177 36.102 165.857 36.5174 165.466 36.8369C165.083 37.1564 164.703 37.3361 164.328 37.3761ZM170.133 34.5604C169.502 34.5444 169.034 34.3687 168.731 34.0332C168.427 33.6898 168.271 33.1746 168.264 32.4876L168.204 26.7246L169.234 26.461V31.9844C169.234 32.3998 169.306 32.6833 169.45 32.8351C169.593 32.9789 169.837 33.0587 170.181 33.0747H170.528C171.111 33.0747 171.646 33.0028 172.134 32.8591C172.621 32.7153 173.168 32.4477 173.775 32.0563L174.458 31.613L172.481 30.93C172.265 30.8582 172.114 30.8222 172.026 30.8222C171.914 30.8382 171.814 30.9021 171.726 31.0139L171.247 31.7328H171.151L170.624 31.1098L171.043 30.343C171.211 30.0474 171.371 29.8357 171.522 29.7079C171.674 29.5721 171.878 29.5082 172.134 29.5162C172.277 29.5162 172.493 29.5602 172.781 29.648C173.068 29.7279 173.439 29.8517 173.895 30.0195C174.59 30.2751 175.145 30.4588 175.56 30.5706C175.816 30.6585 176.123 30.7383 176.483 30.8102L177.106 30.93L177.154 31.0978L176.71 32.224L175.704 32.0443L174.039 33.2425C172.8 34.1211 171.578 34.5604 170.372 34.5604H170.133ZM172.337 36.0461V35.8544L172.781 34.9079L173.907 35.4351V35.6148L173.463 36.5493L172.337 36.0461ZM178.254 34.5964C178.31 34.0053 178.338 33.4022 178.338 32.7872V32.3918L178.278 26.7246L179.321 26.461V32.224C179.321 32.7432 179.301 33.1386 179.261 33.4102C179.221 33.6818 179.137 34.0412 179.009 34.4885L178.326 34.6802L178.254 34.5964Z" fill="black"/>
<g filter="url(#filter1_d_511_329)">
<rect x="19.5454" y="49.959" width="186.793" height="25.0521" rx="8.71379" fill="#C4ECF7"/>
</g>
<ellipse cx="192.329" cy="61.9405" rx="5.83727" ry="5.44612" fill="white"/>
<g filter="url(#filter2_d_511_329)">
<rect x="19.3018" y="81.3287" width="186.793" height="25.0521" rx="8.71379" fill="#D9F6FE"/>
</g>
<path d="M135.976 99.6797C135.816 99.6956 135.577 99.6597 135.257 99.5718C134.946 99.4919 134.694 99.4081 134.502 99.3202L134.239 98.4096L134.299 98.3258C134.754 98.3657 135.074 98.3857 135.257 98.3857C135.848 98.3857 136.328 98.2099 136.695 97.8585C137.062 97.515 137.33 97.1316 137.498 96.7083C137.41 95.9974 137.242 94.9669 136.995 93.617L137.905 93.0419L138.037 93.1258C138.197 93.9885 138.305 94.6514 138.36 95.1147C138.424 95.578 138.456 95.9574 138.456 96.253C138.456 96.8361 138.329 97.3832 138.073 97.8944C137.825 98.4056 137.506 98.821 137.114 99.1405C136.731 99.46 136.352 99.6397 135.976 99.6797ZM141.3 99.6797C141.148 99.6956 140.94 99.6717 140.677 99.6078C140.413 99.5439 140.07 99.448 139.646 99.3202L139.383 98.4096L139.455 98.3258C139.518 98.3258 139.614 98.3337 139.742 98.3497C139.854 98.3577 139.982 98.3657 140.126 98.3737C140.269 98.3817 140.417 98.3857 140.569 98.3857C141.096 98.3857 141.547 98.2259 141.923 97.9064C142.306 97.5949 142.606 97.2275 142.821 96.8041H141.252C140.804 96.8041 140.457 96.7043 140.209 96.5046C139.97 96.2969 139.85 95.9814 139.85 95.558L139.862 95.2825C139.958 94.3799 140.161 93.6929 140.473 93.2217C140.792 92.7504 141.216 92.5147 141.743 92.5147C142.15 92.5147 142.474 92.6026 142.714 92.7783C142.961 92.9461 143.173 93.1737 143.349 93.4613C143.564 93.8367 143.72 94.3239 143.816 94.923L143.876 95.3783H144.427C144.507 95.3783 144.571 95.4502 144.619 95.594C144.674 95.7298 144.702 95.9015 144.702 96.1092C144.702 96.3169 144.674 96.4966 144.619 96.6483C144.571 96.7921 144.507 96.864 144.427 96.864H143.792C143.68 97.3672 143.484 97.8265 143.205 98.2419C142.933 98.6572 142.626 98.9887 142.282 99.2363C141.939 99.4919 141.611 99.6397 141.3 99.6797ZM141.491 95.4981C142.13 95.4981 142.598 95.4941 142.893 95.4861C142.845 95.1666 142.773 94.8551 142.678 94.5516C142.59 94.2481 142.502 94.0044 142.414 93.8207C142.142 93.7488 141.903 93.7129 141.695 93.7129C141.408 93.7129 141.192 93.7968 141.048 93.9645C140.912 94.1322 140.82 94.4637 140.773 94.959V95.0788C140.773 95.2545 140.824 95.3703 140.928 95.4262C141.04 95.4742 141.228 95.4981 141.491 95.4981ZM144.426 96.864C144.346 96.864 144.282 96.7921 144.234 96.6483C144.178 96.4966 144.15 96.3169 144.15 96.1092C144.15 95.9015 144.178 95.7298 144.234 95.594C144.282 95.4502 144.346 95.3783 144.426 95.3783C145.504 95.3783 146.271 95.2425 146.726 94.9709L146.414 92.9341L147.421 92.2991L147.529 92.359C147.609 92.9021 147.673 93.3814 147.72 93.7968C147.768 94.2121 147.792 94.5276 147.792 94.7433C147.792 95.4462 147.557 95.9654 147.085 96.3009C146.774 96.5166 146.394 96.6643 145.947 96.7442C145.5 96.8241 144.993 96.864 144.426 96.864ZM145.983 90.8613V90.6936L146.391 89.8189L147.421 90.3102V90.4779L147.014 91.3286L145.983 90.8613ZM144.27 90.9572V90.7894L144.677 89.9148L145.708 90.406V90.5737L145.3 91.4244L144.27 90.9572ZM153.66 99.1764C152.869 99.1764 152.25 99.0087 151.802 98.6732C151.355 98.3377 151.132 97.8026 151.132 97.0677C151.132 96.7083 151.175 96.3009 151.263 95.8456C151.351 95.3903 151.467 94.8591 151.611 94.2521L152.318 94.3L152.39 94.4198C152.31 94.7872 152.226 95.1946 152.138 95.6419C152.058 96.0892 152.018 96.4087 152.018 96.6004C152.018 97.0477 152.17 97.3473 152.473 97.499C152.777 97.6588 153.248 97.7387 153.887 97.7387C154.942 97.7387 155.996 97.487 157.05 96.9838C157.066 96.8081 157.026 96.6963 156.931 96.6483C156.843 96.5924 156.643 96.5605 156.331 96.5525H155.84C155.169 96.5525 154.666 96.4646 154.331 96.2889C153.995 96.1052 153.831 95.8057 153.839 95.3903C153.839 95.2865 153.851 95.1706 153.875 95.0428C153.947 94.6674 154.119 94.2241 154.39 93.7129C154.67 93.2017 154.986 92.7624 155.337 92.3949C155.688 92.0275 156.016 91.8438 156.319 91.8438C156.487 91.8598 156.667 91.9237 156.859 92.0355C157.05 92.1473 157.274 92.3071 157.53 92.5147L157.326 93.4134L157.206 93.4733C156.727 93.2097 156.399 93.0819 156.224 93.0899C156 93.0899 155.724 93.3015 155.397 93.7249C155.077 94.1482 154.838 94.5676 154.678 94.9829C154.806 95.1107 154.982 95.1986 155.205 95.2465C155.437 95.2865 155.836 95.3064 156.403 95.3064C156.994 95.3064 157.398 95.4143 157.613 95.6299C157.829 95.8376 157.937 96.1331 157.937 96.5166C157.937 96.8281 157.869 97.1396 157.733 97.4511C157.598 97.7706 157.414 98.0222 157.182 98.2059C156.847 98.4615 156.359 98.6852 155.72 98.8769C155.081 99.0766 154.394 99.1764 153.66 99.1764ZM159.289 99.6557C159.249 99.6637 159.193 99.6677 159.121 99.6677C158.834 99.6677 158.474 99.5638 158.043 99.3562L157.779 98.4575L157.851 98.3617C158.011 98.3777 158.159 98.3857 158.294 98.3857C158.39 98.3857 158.542 98.3777 158.75 98.3617C159.205 98.3218 159.576 98.138 159.864 97.8105C160.152 97.4831 160.347 97.1156 160.451 96.7083C160.403 96.2769 160.239 95.2465 159.96 93.617L160.858 93.0419L160.99 93.1258C161.15 93.9805 161.262 94.6395 161.326 95.1027C161.39 95.566 161.422 95.9494 161.422 96.253C161.422 96.8361 161.314 97.3832 161.098 97.8944C160.882 98.4056 160.607 98.817 160.271 99.1285C159.944 99.448 159.616 99.6237 159.289 99.6557ZM162.809 96.9C162.865 96.3089 162.893 95.7058 162.893 95.0908V94.6954L162.833 89.0281L163.875 88.7645V94.5276C163.875 95.0468 163.855 95.4422 163.815 95.7138C163.775 95.9854 163.691 96.3448 163.564 96.7921L162.881 96.9838L162.809 96.9ZM164.741 99.6557C164.701 99.6637 164.646 99.6677 164.574 99.6677C164.286 99.6677 163.927 99.5638 163.495 99.3562L163.232 98.4575L163.292 98.3617C163.451 98.3777 163.603 98.3857 163.747 98.3857C163.843 98.3857 163.995 98.3777 164.202 98.3617C164.65 98.3218 165.017 98.138 165.305 97.8105C165.6 97.4831 165.8 97.1156 165.904 96.7083C165.856 96.229 165.688 95.1986 165.4 93.617L166.311 93.0419L166.443 93.1258L166.646 94.312C166.726 94.7273 166.842 95.0109 166.994 95.1626C167.154 95.3064 167.417 95.3783 167.785 95.3783H168.156C168.236 95.3783 168.3 95.4502 168.348 95.594C168.404 95.7298 168.432 95.9015 168.432 96.1092C168.432 96.3169 168.404 96.4966 168.348 96.6483C168.3 96.7921 168.236 96.864 168.156 96.864H167.809C167.417 96.864 167.094 96.7722 166.838 96.5884L166.826 96.6603C166.786 97.1875 166.654 97.6748 166.431 98.1221C166.215 98.5694 165.952 98.9288 165.64 99.2004C165.336 99.472 165.037 99.6237 164.741 99.6557ZM164.849 91.8558V91.6641L165.293 90.7175L166.419 91.2447V91.4244L165.976 92.359L164.849 91.8558ZM168.154 96.864C168.075 96.864 168.011 96.7921 167.963 96.6483C167.907 96.4966 167.879 96.3169 167.879 96.1092C167.879 95.9015 167.907 95.7298 167.963 95.594C168.011 95.4502 168.075 95.3783 168.154 95.3783C169.121 95.3783 169.848 95.3504 170.335 95.2944C170.822 95.2385 171.218 95.1387 171.521 94.9949C171.449 94.8032 171.338 94.6035 171.186 94.3958C171.034 94.1882 170.794 93.9206 170.467 93.5931L168.478 91.5802L168.694 90.1185L173.45 88.7645L173.414 89.9267L169.592 91.029L171.809 93.3295C172.296 93.8487 172.54 94.3439 172.54 94.8152C172.54 95.558 172.22 96.0812 171.581 96.3848C170.942 96.6803 170.016 96.8361 168.801 96.852C168.666 96.86 168.45 96.864 168.154 96.864ZM168.909 88.6447L171.977 87.7701L171.929 88.6687L168.777 89.5553L168.909 88.6447ZM173.254 99.6797C173.095 99.6956 172.855 99.6597 172.536 99.5718C172.224 99.4919 171.972 99.4081 171.781 99.3202L171.517 98.4096L171.577 98.3258C172.032 98.3657 172.352 98.3857 172.536 98.3857C173.127 98.3857 173.606 98.2099 173.973 97.8585C174.341 97.515 174.608 97.1316 174.776 96.7083C174.688 95.9974 174.52 94.9669 174.273 93.617L175.183 93.0419L175.315 93.1258L175.519 94.312C175.599 94.7273 175.715 95.0109 175.866 95.1626C176.026 95.3064 176.29 95.3783 176.657 95.3783H177.029C177.108 95.3783 177.172 95.4502 177.22 95.594C177.276 95.7298 177.304 95.9015 177.304 96.1092C177.304 96.3169 177.276 96.4966 177.22 96.6483C177.172 96.7921 177.108 96.864 177.029 96.864H176.681C176.298 96.864 175.97 96.7722 175.699 96.5884V96.6723C175.651 97.1995 175.495 97.6827 175.231 98.1221C174.976 98.5694 174.668 98.9288 174.309 99.2004C173.949 99.48 173.598 99.6397 173.254 99.6797ZM177.024 96.864C176.944 96.864 176.88 96.7921 176.832 96.6483C176.776 96.4966 176.748 96.3169 176.748 96.1092C176.748 95.9015 176.776 95.7298 176.832 95.594C176.88 95.4502 176.944 95.3783 177.024 95.3783C178.102 95.3783 178.869 95.2425 179.324 94.9709L179.012 92.9341L180.019 92.2991L180.127 92.359C180.207 92.9021 180.271 93.3814 180.318 93.7968C180.366 94.2121 180.39 94.5276 180.39 94.7433C180.39 95.4462 180.155 95.9654 179.683 96.3009C179.372 96.5166 178.992 96.6643 178.545 96.7442C178.098 96.8241 177.591 96.864 177.024 96.864ZM177.143 99.0686V98.8769L177.587 97.9304L178.713 98.4575V98.6373L178.27 99.5718L177.143 99.0686Z" fill="black"/>
<ellipse cx="192.085" cy="93.3101" rx="5.83727" ry="5.44612" fill="white"/>
<g filter="url(#filter3_d_511_329)">
<rect x="19" y="112" width="186.793" height="25.0521" rx="8.71379" fill="#EBF3F6"/>
</g>
<ellipse cx="191.783" cy="123.981" rx="5.83727" ry="5.44612" fill="white"/>
<path d="M75.432 63.95C75.432 63.3387 75.5487 62.7903 75.782 62.305C76.0154 61.815 76.356 61.325 76.804 60.835L77.203 61.241C76.867 61.6097 76.5987 62.0227 76.398 62.48C76.202 62.9373 76.104 63.4273 76.104 63.95C76.104 64.4773 76.202 64.9673 76.398 65.42C76.5987 65.8773 76.867 66.2903 77.203 66.659L76.804 67.065C76.356 66.575 76.0154 66.0873 75.782 65.602C75.5487 65.1167 75.432 64.566 75.432 63.95ZM78.7964 65.07C78.4744 65.07 78.2107 65.0023 78.0054 64.867C77.8047 64.7317 77.7044 64.5147 77.7044 64.216C77.7044 64.006 77.751 63.7843 77.8444 63.551C77.9377 63.3177 78.108 63.012 78.3554 62.634L78.0824 62.417L78.3834 61.766L78.4674 61.752L79.1324 62.284C79.5057 62.5827 79.7717 62.844 79.9304 63.068C80.0937 63.2873 80.1777 63.5347 80.1824 63.81C80.1824 64.0853 80.1194 64.3187 79.9934 64.51C79.8674 64.6967 79.697 64.8367 79.4824 64.93C79.2724 65.0233 79.0437 65.07 78.7964 65.07ZM78.8594 64.244C79.0647 64.244 79.235 64.2183 79.3704 64.167C79.5104 64.111 79.6177 64.0153 79.6924 63.88C79.6364 63.754 79.5384 63.621 79.3984 63.481C79.2584 63.341 79.0414 63.152 78.7474 62.914C78.5654 63.1893 78.4347 63.4017 78.3554 63.551C78.2807 63.7003 78.2434 63.8263 78.2434 63.929C78.2434 64.139 78.4487 64.244 78.8594 64.244ZM81.9238 65.07C81.6018 65.07 81.3638 65.0117 81.2098 64.895C81.0558 64.7737 80.9788 64.5707 80.9788 64.286C80.9788 64.2067 80.9811 64.146 80.9858 64.104L81.0418 63.523L81.4688 63.46L81.5038 63.502L81.4828 63.915C81.4734 64.0457 81.5084 64.1273 81.5878 64.16C81.6671 64.1927 81.8211 64.209 82.0498 64.209C82.2038 64.209 82.3601 64.1903 82.5188 64.153C82.6821 64.1157 82.8221 64.0667 82.9388 64.006L82.7218 62.032L83.2398 61.654L83.3098 61.689L83.4708 63.313C83.4941 63.5417 83.5338 63.7167 83.5898 63.838C83.6458 63.9547 83.7181 64.034 83.8068 64.076C83.8954 64.1133 84.0098 64.132 84.1498 64.132H84.3528C84.3994 64.132 84.4368 64.174 84.4648 64.258C84.4974 64.3373 84.5138 64.4377 84.5138 64.559C84.5138 64.6803 84.4974 64.7853 84.4648 64.874C84.4368 64.958 84.3994 65 84.3528 65H84.0798C83.8791 65 83.7041 64.9627 83.5548 64.888C83.4101 64.8087 83.3028 64.7013 83.2328 64.566C83.1301 64.72 82.9458 64.8437 82.6798 64.937C82.4184 65.0257 82.1664 65.07 81.9238 65.07ZM84.3549 65C84.3082 65 84.2709 64.958 84.2429 64.874C84.2102 64.7853 84.1939 64.6803 84.1939 64.559C84.1939 64.4377 84.2102 64.3373 84.2429 64.258C84.2709 64.174 84.3082 64.132 84.3549 64.132H84.8029C85.0595 64.132 85.2485 64.1063 85.3699 64.055C85.4912 63.999 85.5659 63.894 85.5939 63.74L85.7409 62.977L85.8109 62.928L86.2659 63.047L86.1679 63.67C86.1492 63.796 86.1865 63.9057 86.2799 63.999C86.3732 64.0877 86.5109 64.132 86.6929 64.132H86.9379C86.9845 64.132 87.0219 64.174 87.0499 64.258C87.0825 64.3373 87.0989 64.4377 87.0989 64.559C87.0989 64.6803 87.0825 64.7853 87.0499 64.874C87.0219 64.958 86.9845 65 86.9379 65H86.6649C86.4549 65 86.2775 64.9603 86.1329 64.881C85.9882 64.8017 85.8809 64.6897 85.8109 64.545C85.6942 64.713 85.5519 64.832 85.3839 64.902C85.2205 64.9673 85.0199 65 84.7819 65H84.3549ZM84.9219 62.109V61.997L85.1809 61.444L85.8389 61.752V61.857L85.5799 62.403L84.9219 62.109ZM86.9388 65C86.8922 65 86.8548 64.958 86.8268 64.874C86.7942 64.7853 86.7778 64.6803 86.7778 64.559C86.7778 64.4377 86.7942 64.3373 86.8268 64.258C86.8548 64.174 86.8922 64.132 86.9388 64.132C87.5688 64.132 88.0168 64.0527 88.2828 63.894L88.1008 62.704L88.6888 62.333L88.7518 62.368C88.7985 62.6853 88.8358 62.9653 88.8638 63.208C88.8918 63.4507 88.9058 63.635 88.9058 63.761C88.9058 64.1717 88.7682 64.475 88.4928 64.671C88.3108 64.797 88.0892 64.8833 87.8278 64.93C87.5665 64.9767 87.2702 65 86.9388 65ZM87.6108 61.535V61.423L87.8698 60.87L88.5278 61.178V61.283L88.2688 61.829L87.6108 61.535ZM89.7219 65.021C89.7546 64.6757 89.7709 64.3233 89.7709 63.964V63.733L89.7359 60.422L90.3449 60.268V63.635C90.3449 63.9383 90.3333 64.1693 90.3099 64.328C90.2866 64.4867 90.2376 64.6967 90.1629 64.958L89.7639 65.07L89.7219 65.021ZM90.8169 66.631C90.7936 66.6357 90.7609 66.638 90.7189 66.638C90.5509 66.638 90.3409 66.5773 90.0889 66.456L89.9349 65.931L89.9769 65.875C90.0702 65.8843 90.1566 65.889 90.2359 65.889C90.2919 65.889 90.3806 65.8843 90.5019 65.875C90.7679 65.8517 90.9849 65.7443 91.1529 65.553C91.3209 65.3617 91.4352 65.147 91.4959 64.909C91.4679 64.657 91.3722 64.055 91.2089 63.103L91.7339 62.767L91.8109 62.816C91.9042 63.3153 91.9696 63.7003 92.0069 63.971C92.0442 64.2417 92.0629 64.4657 92.0629 64.643C92.0629 64.9837 91.9999 65.3033 91.8739 65.602C91.7479 65.9007 91.5869 66.141 91.3909 66.323C91.1996 66.5097 91.0082 66.6123 90.8169 66.631ZM95.4851 66.351C95.0231 66.351 94.6614 66.253 94.4001 66.057C94.1387 65.861 94.0081 65.5507 94.0081 65.126C94.0081 65.042 94.0104 64.979 94.0151 64.937C94.0431 64.6103 94.1341 64.1227 94.2881 63.474L94.7011 63.502L94.7431 63.572L94.6871 63.838C94.5751 64.356 94.5191 64.685 94.5191 64.825C94.5191 65.0817 94.6077 65.2543 94.7851 65.343C94.9671 65.4363 95.2447 65.483 95.6181 65.483C96.0334 65.483 96.3997 65.4363 96.7171 65.343C97.0391 65.2543 97.3027 65.1517 97.5081 65.035C97.4521 64.601 97.3471 63.9617 97.1931 63.117L97.7111 62.788L97.7951 62.823C97.9817 63.9057 98.0751 64.5917 98.0751 64.881C98.0751 65.2403 97.9584 65.5157 97.7251 65.707C97.5011 65.8937 97.1977 66.0477 96.8151 66.169C96.4371 66.2903 95.9937 66.351 95.4851 66.351ZM95.4431 63.859V63.747L95.7021 63.194L96.3601 63.502V63.607L96.1011 64.153L95.4431 63.859ZM99.7347 66.645C99.646 66.6543 99.5247 66.6403 99.3707 66.603C99.2167 66.5657 99.016 66.5097 98.7687 66.435L98.6147 65.903L98.6567 65.854C99.058 65.882 99.3193 65.8913 99.4407 65.882C99.7393 65.8587 99.9937 65.742 100.204 65.532C100.418 65.322 100.575 65.0957 100.673 64.853C100.36 64.9277 100.038 64.965 99.7067 64.965C99.4453 64.965 99.2423 64.9043 99.0977 64.783C98.9577 64.657 98.8877 64.4703 98.8877 64.223L98.8947 64.076C98.9507 63.5487 99.0697 63.1473 99.2517 62.872C99.4383 62.5967 99.6857 62.459 99.9937 62.459C100.236 62.459 100.43 62.5127 100.575 62.62C100.724 62.7227 100.848 62.8603 100.946 63.033C101.039 63.1917 101.114 63.404 101.17 63.67C101.226 63.9313 101.254 64.1973 101.254 64.468C101.254 64.8413 101.174 65.189 101.016 65.511C100.862 65.8377 100.666 66.1013 100.428 66.302C100.19 66.5073 99.9587 66.6217 99.7347 66.645ZM99.8467 64.202C100.145 64.202 100.416 64.1857 100.659 64.153C100.626 63.971 100.584 63.796 100.533 63.628C100.481 63.46 100.432 63.3247 100.386 63.222C100.227 63.18 100.087 63.159 99.9657 63.159C99.7977 63.159 99.6717 63.208 99.5877 63.306C99.5083 63.404 99.4547 63.5977 99.4267 63.887V63.95C99.422 64.0573 99.45 64.1273 99.5107 64.16C99.576 64.188 99.688 64.202 99.8467 64.202ZM103.006 65.07C102.684 65.07 102.446 65.0117 102.292 64.895C102.138 64.7737 102.061 64.5707 102.061 64.286C102.061 64.2067 102.063 64.146 102.068 64.104L102.124 63.523L102.551 63.46L102.586 63.502L102.565 63.915C102.555 64.0457 102.59 64.1273 102.67 64.16C102.749 64.1927 102.903 64.209 103.132 64.209C103.286 64.209 103.442 64.1903 103.601 64.153C103.764 64.1157 103.904 64.0667 104.021 64.006L103.804 62.032L104.322 61.654L104.392 61.689L104.553 63.313C104.576 63.5417 104.616 63.7167 104.672 63.838C104.728 63.9547 104.8 64.034 104.889 64.076C104.977 64.1133 105.092 64.132 105.232 64.132H105.435C105.481 64.132 105.519 64.174 105.547 64.258C105.579 64.3373 105.596 64.4377 105.596 64.559C105.596 64.6803 105.579 64.7853 105.547 64.874C105.519 64.958 105.481 65 105.435 65H105.162C104.961 65 104.786 64.9627 104.637 64.888C104.492 64.8087 104.385 64.7013 104.315 64.566C104.212 64.72 104.028 64.8437 103.762 64.937C103.5 65.0257 103.248 65.07 103.006 65.07ZM105.437 65C105.39 65 105.353 64.958 105.325 64.874C105.292 64.7853 105.276 64.6803 105.276 64.559C105.276 64.4377 105.292 64.3373 105.325 64.258C105.353 64.174 105.39 64.132 105.437 64.132C106.067 64.132 106.515 64.0527 106.781 63.894L106.599 62.704L107.187 62.333L107.25 62.368C107.297 62.6853 107.334 62.9653 107.362 63.208C107.39 63.4507 107.404 63.635 107.404 63.761C107.404 64.1717 107.266 64.475 106.991 64.671C106.809 64.797 106.587 64.8833 106.326 64.93C106.065 64.9767 105.768 65 105.437 65ZM105.507 66.288V66.176L105.766 65.623L106.424 65.931V66.036L106.165 66.582L105.507 66.288ZM109.68 63.95C109.68 64.566 109.563 65.1167 109.33 65.602C109.096 66.0873 108.756 66.575 108.308 67.065L107.909 66.659C108.245 66.2903 108.511 65.8773 108.707 65.42C108.907 64.9673 109.008 64.4773 109.008 63.95C109.008 63.4273 108.907 62.9373 108.707 62.48C108.511 62.0227 108.245 61.6097 107.909 61.241L108.308 60.835C108.756 61.325 109.096 61.8127 109.33 62.298C109.563 62.7833 109.68 63.334 109.68 63.95ZM116.514 65C116.156 65 115.857 64.9244 115.616 64.7731C115.383 64.615 115.2 64.3641 115.07 64.0203L114.802 64.6184C114.554 64.6528 114.262 64.67 113.925 64.67C113.396 64.67 112.987 64.5737 112.698 64.3812C112.416 64.1819 112.275 63.8794 112.275 63.4737C112.275 63.0544 112.399 62.6728 112.646 62.3291C112.901 61.9784 113.313 61.6656 113.884 61.3906L114.853 60.9266V60.2253L115.761 59.9675V62.9478C115.761 63.2091 115.823 63.405 115.946 63.5356C116.07 63.6594 116.266 63.7212 116.534 63.7212H116.864C116.933 63.7212 116.988 63.7831 117.029 63.9069C117.077 64.0237 117.101 64.1716 117.101 64.3503C117.101 64.5291 117.077 64.6837 117.029 64.8144C116.988 64.9381 116.933 65 116.864 65H116.514ZM114.853 63.4944V61.9372L114.307 62.1847L113.069 62.7416C113.055 62.8516 113.049 62.9272 113.049 62.9684C113.049 63.1128 113.086 63.2228 113.162 63.2984C113.238 63.3741 113.358 63.4256 113.523 63.4531C113.695 63.4806 113.939 63.4944 114.255 63.4944H114.853ZM116.866 65C116.797 65 116.742 64.9381 116.701 64.8144C116.653 64.6837 116.629 64.5291 116.629 64.3503C116.629 64.1716 116.653 64.0237 116.701 63.9069C116.742 63.7831 116.797 63.7212 116.866 63.7212H117.526C117.904 63.7212 118.183 63.6834 118.361 63.6078C118.54 63.5253 118.65 63.3706 118.691 63.1437L118.908 62.0197L119.011 61.9475L119.681 62.1228L119.537 63.0406C119.51 63.2262 119.565 63.3878 119.702 63.5253C119.84 63.6559 120.042 63.7212 120.311 63.7212H120.671C120.74 63.7212 120.795 63.7831 120.836 63.9069C120.885 64.0237 120.909 64.1716 120.909 64.3503C120.909 64.5291 120.885 64.6837 120.836 64.8144C120.795 64.9381 120.74 65 120.671 65H120.269C119.96 65 119.699 64.9416 119.486 64.8247C119.272 64.7078 119.114 64.5428 119.011 64.3297C118.839 64.5772 118.63 64.7525 118.382 64.8556C118.141 64.9519 117.846 65 117.495 65H116.866ZM118.691 66.8459V66.6913L119.042 65.9488L119.929 66.3716V66.5056L119.578 67.2481L118.691 66.8459ZM117.217 66.9284V66.7738L117.567 66.0313L118.454 66.4541V66.5881L118.104 67.3306L117.217 66.9284ZM120.436 64.3503C120.436 64.1716 120.46 64.0237 120.508 63.9069C120.549 63.7831 120.604 63.7212 120.673 63.7212C120.79 63.7212 120.872 63.7178 120.92 63.7109C121.477 63.6903 121.89 63.5975 122.158 63.4325L122.106 58.2556L122.993 58.0287V62.7828C122.993 63.1472 123.062 63.3947 123.199 63.5253C123.344 63.6559 123.598 63.7212 123.963 63.7212H124.344C124.413 63.7212 124.468 63.7831 124.509 63.9069C124.557 64.0237 124.581 64.1716 124.581 64.3503C124.581 64.5291 124.557 64.6837 124.509 64.8144C124.468 64.9381 124.413 65 124.344 65H123.973C123.285 65 122.808 64.8075 122.539 64.4225C122.361 64.5944 122.134 64.7284 121.859 64.8247C121.584 64.9209 121.281 64.9759 120.951 64.9897C120.889 64.9966 120.797 65 120.673 65C120.604 65 120.549 64.9381 120.508 64.8144C120.46 64.6837 120.436 64.5291 120.436 64.3503ZM124.349 65C124.28 65 124.225 64.9381 124.184 64.8144C124.136 64.6837 124.112 64.5291 124.112 64.3503C124.112 64.1716 124.136 64.0237 124.184 63.9069C124.225 63.7831 124.28 63.7212 124.349 63.7212H124.73C124.93 63.7212 125.139 63.7109 125.359 63.6903C125.249 63.4909 125.194 63.2744 125.194 63.0406C125.194 62.8825 125.218 62.7209 125.267 62.5559C125.363 62.1847 125.456 61.8822 125.545 61.6484C125.634 61.4078 125.765 61.1947 125.937 61.0091C126.109 60.8166 126.329 60.7203 126.597 60.7203C127.243 60.7203 127.724 60.8819 128.041 61.205C128.364 61.5281 128.525 61.92 128.525 62.3806C128.525 62.7862 128.398 63.2297 128.144 63.7109L128.525 63.7212H129.237C129.299 63.7212 129.354 63.7831 129.402 63.9069C129.45 64.0306 129.474 64.1784 129.474 64.3503C129.474 64.5291 129.45 64.6837 129.402 64.8144C129.354 64.9381 129.299 65 129.237 65H128.505C127.742 65 127.085 64.8969 126.535 64.6906C125.999 64.8831 125.425 64.9862 124.813 65H124.349ZM126.958 63.6078C127.522 63.2091 127.803 62.8653 127.803 62.5766C127.803 62.3359 127.707 62.1503 127.515 62.0197C127.329 61.8891 127.009 61.7997 126.556 61.7516L126.267 61.7206C126.198 61.92 126.16 62.0231 126.153 62.03C126.03 62.3737 125.968 62.6144 125.968 62.7519C125.968 63.1712 126.298 63.4566 126.958 63.6078ZM126.855 59.5137V59.3694L127.205 58.6166L128.092 59.0394V59.1837L127.742 59.9159L126.855 59.5137ZM125.38 59.5962V59.4519L125.731 58.6991L126.617 59.1219V59.2662L126.267 59.9984L125.38 59.5962ZM129.233 65C129.164 65 129.109 64.9381 129.068 64.8144C129.02 64.6837 128.996 64.5291 128.996 64.3503C128.996 64.1716 129.02 64.0237 129.068 63.9069C129.109 63.7831 129.164 63.7212 129.233 63.7212C130.161 63.7212 130.821 63.6044 131.213 63.3706L130.945 61.6175L131.811 61.0709L131.904 61.1225C131.973 61.59 132.028 62.0025 132.069 62.36C132.11 62.7175 132.131 62.9891 132.131 63.1747C132.131 63.7797 131.928 64.2266 131.522 64.5153C131.254 64.7009 130.928 64.8281 130.543 64.8969C130.158 64.9656 129.721 65 129.233 65ZM130.223 59.8953V59.7303L130.605 58.9156L131.574 59.3694V59.5241L131.192 60.3284L130.223 59.8953ZM139.243 65C138.886 65 138.587 64.9244 138.346 64.7731C138.112 64.615 137.93 64.3641 137.8 64.0203L137.532 64.6184C137.284 64.6528 136.992 64.67 136.655 64.67C136.126 64.67 135.717 64.5737 135.428 64.3812C135.146 64.1819 135.005 63.8794 135.005 63.4737C135.005 63.0544 135.129 62.6728 135.376 62.3291C135.631 61.9784 136.043 61.6656 136.614 61.3906L137.583 60.9266V60.2253L138.491 59.9675V62.9478C138.491 63.2091 138.552 63.405 138.676 63.5356C138.8 63.6594 138.996 63.7212 139.264 63.7212H139.594C139.663 63.7212 139.718 63.7831 139.759 63.9069C139.807 64.0237 139.831 64.1716 139.831 64.3503C139.831 64.5291 139.807 64.6837 139.759 64.8144C139.718 64.9381 139.663 65 139.594 65H139.243ZM137.583 63.4944V61.9372L137.037 62.1847L135.799 62.7416C135.785 62.8516 135.778 62.9272 135.778 62.9684C135.778 63.1128 135.816 63.2228 135.892 63.2984C135.967 63.3741 136.088 63.4256 136.253 63.4531C136.425 63.4806 136.669 63.4944 136.985 63.4944H137.583ZM139.359 64.3503C139.359 64.1716 139.383 64.0237 139.431 63.9069C139.472 63.7831 139.527 63.7212 139.596 63.7212C139.713 63.7212 139.795 63.7178 139.843 63.7109C140.4 63.6903 140.813 63.5975 141.081 63.4325L141.029 58.2556L141.916 58.0287V62.7828C141.916 63.1472 141.985 63.3947 142.123 63.5253C142.267 63.6559 142.521 63.7212 142.886 63.7212H143.267C143.336 63.7212 143.391 63.7831 143.432 63.9069C143.48 64.0237 143.504 64.1716 143.504 64.3503C143.504 64.5291 143.48 64.6837 143.432 64.8144C143.391 64.9381 143.336 65 143.267 65H142.896C142.208 65 141.731 64.8075 141.463 64.4225C141.284 64.5944 141.057 64.7284 140.782 64.8247C140.507 64.9209 140.204 64.9759 139.874 64.9897C139.813 64.9966 139.72 65 139.596 65C139.527 65 139.472 64.9381 139.431 64.8144C139.383 64.6837 139.359 64.5291 139.359 64.3503ZM143.272 65C143.203 65 143.148 64.9381 143.107 64.8144C143.059 64.6837 143.035 64.5291 143.035 64.3503C143.035 64.1716 143.059 64.0237 143.107 63.9069C143.148 63.7831 143.203 63.7212 143.272 63.7212H144.066C144.478 63.7212 144.736 63.6662 144.839 63.5562L144.612 62.0094L145.272 61.5041L145.386 61.5556L145.551 62.7003C145.606 63.0991 145.719 63.3706 145.891 63.515C146.063 63.6525 146.341 63.7212 146.726 63.7212H147.098C147.166 63.7212 147.221 63.7831 147.263 63.9069C147.311 64.0237 147.335 64.1716 147.335 64.3503C147.335 64.5291 147.311 64.6837 147.263 64.8144C147.221 64.9381 147.166 65 147.098 65H146.757C146.386 65 146.091 64.9519 145.871 64.8556C145.651 64.7525 145.479 64.5978 145.355 64.3916C145.231 64.5772 145.063 64.725 144.85 64.835C144.636 64.945 144.396 65 144.128 65H143.272ZM145.097 66.8459V66.6913L145.448 65.9488L146.335 66.3716V66.5056L145.984 67.2481L145.097 66.8459ZM143.622 66.9284V66.7738L143.973 66.0313L144.86 66.4541V66.5881L144.509 67.3306L143.622 66.9284ZM147.099 65C147.03 65 146.975 64.9381 146.934 64.8144C146.886 64.6837 146.861 64.5291 146.861 64.3503C146.861 64.1716 146.886 64.0237 146.934 63.9069C146.975 63.7831 147.03 63.7212 147.099 63.7212H147.542C147.906 63.7212 148.178 63.6662 148.357 63.5562C148.536 63.4394 148.68 63.2297 148.79 62.9272L149.11 61.9991L149.233 61.9475L149.873 62.195L149.594 63.0922C149.546 63.2297 149.519 63.3191 149.512 63.3603C149.732 63.6009 150.103 63.7212 150.626 63.7212C151.079 63.7212 151.392 63.6559 151.564 63.5253C151.743 63.3947 151.836 63.185 151.842 62.8962L151.863 62.3497L152.626 62.3291V63.5459C152.839 63.6628 153.083 63.7212 153.358 63.7212C153.599 63.7212 153.788 63.6662 153.926 63.5562L153.637 61.6175L154.503 61.0709L154.606 61.1225L154.668 61.6278C154.737 62.2328 154.771 62.5216 154.771 62.4941C154.806 62.7691 154.823 62.9959 154.823 63.1747C154.823 63.5666 154.751 63.8931 154.606 64.1544C154.469 64.4225 154.276 64.6322 154.029 64.7834C153.781 64.9278 153.51 65 153.214 65C152.973 65 152.743 64.9622 152.523 64.8866C152.31 64.8041 152.148 64.6906 152.038 64.5462C151.901 64.6837 151.705 64.7937 151.451 64.8762C151.203 64.9587 150.931 65 150.636 65C150.237 65 149.904 64.9416 149.636 64.8247C149.367 64.7078 149.171 64.5462 149.048 64.34C148.917 64.5737 148.731 64.7422 148.491 64.8453C148.25 64.9484 147.944 65 147.573 65H147.099ZM157.249 67.4234C157.118 67.4372 156.939 67.4166 156.712 67.3616C156.485 67.3066 156.19 67.2241 155.825 67.1141L155.599 66.3303L155.66 66.2581C156.252 66.2994 156.637 66.3131 156.815 66.2994C157.255 66.265 157.63 66.0931 157.939 65.7838C158.256 65.4744 158.486 65.1409 158.63 64.7834C158.17 64.8934 157.695 64.9484 157.207 64.9484C156.822 64.9484 156.523 64.8591 156.31 64.6803C156.104 64.4947 156.001 64.2197 156.001 63.8553L156.011 63.6387C156.094 62.8619 156.269 62.2706 156.537 61.865C156.812 61.4594 157.176 61.2566 157.63 61.2566C157.988 61.2566 158.273 61.3356 158.486 61.4937C158.706 61.645 158.888 61.8478 159.033 62.1022C159.17 62.3359 159.28 62.6487 159.363 63.0406C159.445 63.4256 159.486 63.8175 159.486 64.2162C159.486 64.7662 159.369 65.2784 159.136 65.7528C158.909 66.2341 158.62 66.6225 158.269 66.9181C157.919 67.2206 157.579 67.3891 157.249 67.4234ZM157.414 63.8244C157.854 63.8244 158.252 63.8003 158.61 63.7522C158.562 63.4841 158.5 63.2262 158.424 62.9787C158.349 62.7312 158.276 62.5319 158.208 62.3806C157.974 62.3187 157.768 62.2878 157.589 62.2878C157.341 62.2878 157.156 62.36 157.032 62.5044C156.915 62.6487 156.836 62.9341 156.795 63.3603V63.4531C156.788 63.6112 156.829 63.7144 156.919 63.7625C157.015 63.8037 157.18 63.8244 157.414 63.8244ZM163.966 65.1031C163.492 65.1031 163.103 65.0034 162.801 64.8041C162.505 64.6047 162.357 64.285 162.357 63.845C162.357 63.5356 162.426 63.2091 162.563 62.8653C162.701 62.5216 162.952 62.0712 163.316 61.5144L162.914 61.1947L163.358 60.2356L163.481 60.215L164.461 60.9987C165.011 61.4387 165.403 61.8237 165.637 62.1537C165.877 62.4769 166.001 62.8412 166.008 63.2469C166.008 63.6525 165.915 63.9962 165.729 64.2781C165.544 64.5531 165.293 64.7594 164.977 64.8969C164.667 65.0344 164.33 65.1031 163.966 65.1031ZM164.059 63.8862C164.361 63.8862 164.612 63.8484 164.812 63.7728C165.018 63.6903 165.176 63.5494 165.286 63.35C165.203 63.1644 165.059 62.9684 164.853 62.7622C164.647 62.5559 164.327 62.2775 163.894 61.9269C163.626 62.3325 163.433 62.6453 163.316 62.8653C163.206 63.0853 163.151 63.2709 163.151 63.4222C163.151 63.7316 163.454 63.8862 164.059 63.8862ZM166.615 67.4234C166.477 67.4372 166.271 67.4063 165.996 67.3306C165.728 67.2619 165.511 67.1897 165.346 67.1141L165.119 66.3303L165.171 66.2581C165.563 66.2925 165.838 66.3097 165.996 66.3097C166.505 66.3097 166.917 66.1584 167.233 65.8559C167.55 65.5603 167.78 65.2303 167.924 64.8659C167.849 64.2541 167.704 63.3672 167.491 62.2053L168.275 61.7103L168.388 61.7825C168.526 62.525 168.619 63.0956 168.667 63.4944C168.722 63.8931 168.749 64.2197 168.749 64.4741C168.749 64.9759 168.639 65.4469 168.419 65.8869C168.206 66.3269 167.931 66.6844 167.594 66.9594C167.264 67.2344 166.938 67.3891 166.615 67.4234ZM171.611 65C171.068 64.9862 170.666 64.835 170.404 64.5462C170.143 64.2506 170.009 63.8072 170.002 63.2159L169.951 58.2556L170.838 58.0287V62.7828C170.838 63.1403 170.899 63.3844 171.023 63.515C171.147 63.6387 171.357 63.7075 171.652 63.7212H171.951C172.453 63.7212 172.914 63.6594 173.333 63.5356C173.753 63.4119 174.223 63.1816 174.746 62.8447L175.334 62.4631L173.632 61.8753C173.447 61.8134 173.316 61.7825 173.24 61.7825C173.144 61.7962 173.058 61.8512 172.983 61.9475L172.57 62.5662H172.488L172.034 62.03L172.395 61.37C172.539 61.1156 172.677 60.9334 172.807 60.8234C172.938 60.7066 173.113 60.6516 173.333 60.6584C173.457 60.6584 173.643 60.6962 173.89 60.7719C174.138 60.8406 174.457 60.9472 174.849 61.0916C175.447 61.3116 175.925 61.4697 176.283 61.5659C176.503 61.6416 176.767 61.7103 177.077 61.7722L177.613 61.8753L177.654 62.0197L177.273 62.9891L176.406 62.8344L174.973 63.8656C173.907 64.6219 172.855 65 171.817 65H171.611ZM173.508 66.2788V66.1138L173.89 65.2991L174.859 65.7528V65.9075L174.478 66.7119L173.508 66.2788ZM178.601 65.0309C178.65 64.5222 178.674 64.0031 178.674 63.4737V63.1334L178.622 58.2556L179.519 58.0287V62.9891C179.519 63.4359 179.502 63.7762 179.468 64.01C179.433 64.2437 179.361 64.5531 179.251 64.9381L178.663 65.1031L178.601 65.0309Z" fill="black"/>
<defs>
<filter id="filter0_d_511_329" x="17.559" y="18.5894" width="190.278" height="28.5376" filterUnits="userSpaceOnUse" color-interpolation-filters="sRGB">
<feFlood flood-opacity="0" result="BackgroundImageFix"/>
<feColorMatrix in="SourceAlpha" type="matrix" values="0 0 0 0 0 0 0 0 0 0 0 0 0 0 0 0 0 0 127 0" result="hardAlpha"/>
<feOffset dy="1.74276"/>
<feGaussianBlur stdDeviation="0.871379"/>
<feComposite in2="hardAlpha" operator="out"/>
<feColorMatrix type="matrix" values="0 0 0 0 0.440706 0 0 0 0 0.440706 0 0 0 0 0.440706 0 0 0 0.25 0"/>
<feBlend mode="normal" in2="BackgroundImageFix" result="effect1_dropShadow_511_329"/>
<feBlend mode="normal" in="SourceGraphic" in2="effect1_dropShadow_511_329" result="shape"/>
</filter>
<filter id="filter1_d_511_329" x="17.8027" y="49.959" width="190.278" height="28.5377" filterUnits="userSpaceOnUse" color-interpolation-filters="sRGB">
<feFlood flood-opacity="0" result="BackgroundImageFix"/>
<feColorMatrix in="SourceAlpha" type="matrix" values="0 0 0 0 0 0 0 0 0 0 0 0 0 0 0 0 0 0 127 0" result="hardAlpha"/>
<feOffset dy="1.74276"/>
<feGaussianBlur stdDeviation="0.871379"/>
<feComposite in2="hardAlpha" operator="out"/>
<feColorMatrix type="matrix" values="0 0 0 0 0.440706 0 0 0 0 0.440706 0 0 0 0 0.440706 0 0 0 0.25 0"/>
<feBlend mode="normal" in2="BackgroundImageFix" result="effect1_dropShadow_511_329"/>
<feBlend mode="normal" in="SourceGraphic" in2="effect1_dropShadow_511_329" result="shape"/>
</filter>
<filter id="filter2_d_511_329" x="17.559" y="81.3287" width="190.278" height="28.5377" filterUnits="userSpaceOnUse" color-interpolation-filters="sRGB">
<feFlood flood-opacity="0" result="BackgroundImageFix"/>
<feColorMatrix in="SourceAlpha" type="matrix" values="0 0 0 0 0 0 0 0 0 0 0 0 0 0 0 0 0 0 127 0" result="hardAlpha"/>
<feOffset dy="1.74276"/>
<feGaussianBlur stdDeviation="0.871379"/>
<feComposite in2="hardAlpha" operator="out"/>
<feColorMatrix type="matrix" values="0 0 0 0 0.440706 0 0 0 0 0.440706 0 0 0 0 0.440706 0 0 0 0.25 0"/>
<feBlend mode="normal" in2="BackgroundImageFix" result="effect1_dropShadow_511_329"/>
<feBlend mode="normal" in="SourceGraphic" in2="effect1_dropShadow_511_329" result="shape"/>
</filter>
<filter id="filter3_d_511_329" x="17.2572" y="112" width="190.278" height="28.5377" filterUnits="userSpaceOnUse" color-interpolation-filters="sRGB">
<feFlood flood-opacity="0" result="BackgroundImageFix"/>
<feColorMatrix in="SourceAlpha" type="matrix" values="0 0 0 0 0 0 0 0 0 0 0 0 0 0 0 0 0 0 127 0" result="hardAlpha"/>
<feOffset dy="1.74276"/>
<feGaussianBlur stdDeviation="0.871379"/>
<feComposite in2="hardAlpha" operator="out"/>
<feColorMatrix type="matrix" values="0 0 0 0 0.440706 0 0 0 0 0.440706 0 0 0 0 0.440706 0 0 0 0.25 0"/>
<feBlend mode="normal" in2="BackgroundImageFix" result="effect1_dropShadow_511_329"/>
<feBlend mode="normal" in="SourceGraphic" in2="effect1_dropShadow_511_329" result="shape"/>
</filter>
</defs>
</svg>
