<svg width="298" height="89" viewBox="0 0 298 89" fill="none" xmlns="http://www.w3.org/2000/svg">
<path d="M3.155 48.15C2.515 48.15 2.045 48.01 1.745 47.73C1.455 47.45 1.34 46.99 1.4 46.35L1.49 45.42L1.97 45.33L2.03 45.39L1.985 46.245C1.955 46.655 2.045 46.92 2.255 47.04C2.465 47.16 2.83 47.22 3.35 47.22C4.03 47.22 4.655 47.125 5.225 46.935C5.795 46.735 6.17 46.47 6.35 46.14C6.27 45.88 6.1 45.555 5.84 45.165C5.59 44.765 5.045 43.965 4.205 42.765L3.8 42.195L4.355 41.49L4.805 42.135C5.525 43.155 6.05 43.96 6.38 44.55C6.72 45.13 6.89 45.62 6.89 46.02C6.89 46.52 6.7 46.93 6.32 47.25C5.94 47.56 5.465 47.79 4.895 47.94C4.325 48.08 3.745 48.15 3.155 48.15ZM7.43164 51.495C7.10164 51.495 6.71664 51.39 6.27664 51.18L6.09664 50.595L6.14164 50.535C6.43164 50.625 6.80664 50.66 7.26664 50.64C7.86664 50.6 8.37164 50.315 8.78164 49.785C9.20164 49.265 9.47164 48.67 9.59164 48C9.52164 47.3 9.34664 46.06 9.06664 44.28L9.65164 43.875L9.75664 43.95C10.0666 45.87 10.2216 47.1 10.2216 47.64C10.2216 48.28 10.0916 48.89 9.83164 49.47C9.57164 50.06 9.23664 50.535 8.82664 50.895C8.41664 51.265 8.01164 51.46 7.61164 51.48L7.43164 51.495ZM13.3964 51.495C13.1964 51.495 12.9364 51.455 12.6164 51.375C12.2964 51.295 11.9964 51.205 11.7164 51.105L11.5364 50.52L11.5814 50.46C12.2614 50.58 12.7614 50.64 13.0814 50.64C13.5314 50.64 13.9514 50.51 14.3414 50.25C14.7414 50 15.0814 49.67 15.3614 49.26C15.6414 48.86 15.8464 48.44 15.9764 48H13.8314C12.7814 48 12.2564 47.555 12.2564 46.665C12.2564 46.615 12.2664 46.49 12.2864 46.29C12.4864 44.33 13.1514 43.35 14.2814 43.35C14.7114 43.35 15.0814 43.45 15.3914 43.65C15.7014 43.84 15.9414 44.095 16.1114 44.415C16.2414 44.645 16.3614 44.965 16.4714 45.375C16.5814 45.775 16.6514 46.165 16.6814 46.545L16.6964 47.07H17.4914C17.5514 47.07 17.6014 47.115 17.6414 47.205C17.6814 47.295 17.7014 47.405 17.7014 47.535C17.7014 47.665 17.6814 47.775 17.6414 47.865C17.6014 47.955 17.5514 48 17.4914 48H16.6364C16.5064 48.64 16.2614 49.225 15.9014 49.755C15.5514 50.295 15.1464 50.72 14.6864 51.03C14.2364 51.34 13.8064 51.495 13.3964 51.495ZM16.0214 47.115C16.0114 46.705 15.9364 46.24 15.7964 45.72C15.6664 45.19 15.5214 44.77 15.3614 44.46C14.9814 44.27 14.6064 44.175 14.2364 44.175C13.8364 44.175 13.5364 44.305 13.3364 44.565C13.1464 44.825 13.0114 45.32 12.9314 46.05C12.9114 46.23 12.9014 46.345 12.9014 46.395C12.9014 46.655 12.9864 46.84 13.1564 46.95C13.3264 47.06 13.6164 47.115 14.0264 47.115H16.0214ZM17.4922 48C17.4422 48 17.3972 47.955 17.3572 47.865C17.3172 47.775 17.2972 47.665 17.2972 47.535C17.2972 47.405 17.3172 47.295 17.3572 47.205C17.3972 47.115 17.4422 47.07 17.4922 47.07H18.1822C18.8822 47.07 19.5522 46.975 20.1922 46.785C20.8322 46.585 21.4772 46.265 22.1272 45.825L23.8822 44.685L20.8522 43.62C20.5622 43.52 20.3572 43.47 20.2372 43.47C20.0772 43.47 19.9422 43.55 19.8322 43.71L19.2172 44.64H19.1572L18.7972 44.205L19.1572 43.59C19.3672 43.22 19.5522 42.96 19.7122 42.81C19.8722 42.65 20.0822 42.57 20.3422 42.57C20.4822 42.57 20.6822 42.615 20.9422 42.705C21.2022 42.785 21.6172 42.93 22.1872 43.14C22.2772 43.17 22.5872 43.285 23.1172 43.485C23.6572 43.675 24.1822 43.84 24.6922 43.98C24.9022 44.05 25.1472 44.11 25.4272 44.16L26.0122 44.28L26.0572 44.43L25.7572 45.15L24.6922 44.955L22.4572 46.485C21.0072 47.495 19.5622 48 18.1222 48H17.4922ZM19.5172 40.875V40.695L19.8922 39.87L20.8972 40.35V40.515L20.5222 41.325L19.5172 40.875ZM26.2095 51.495C26.0095 51.495 25.7495 51.45 25.4295 51.36C25.1095 51.28 24.8495 51.195 24.6495 51.105L24.4695 50.52L24.5145 50.46C25.0545 50.58 25.5095 50.64 25.8795 50.64C26.3795 50.64 26.8345 50.495 27.2445 50.205C27.6545 49.925 27.9845 49.57 28.2345 49.14C28.4945 48.72 28.6595 48.3 28.7295 47.88C28.6895 47.35 28.5145 46.15 28.2045 44.28L28.7895 43.875L28.8945 43.95L29.1795 45.69C29.2795 46.23 29.4495 46.595 29.6895 46.785C29.9295 46.975 30.3145 47.07 30.8445 47.07H31.1895C31.2395 47.07 31.2845 47.115 31.3245 47.205C31.3645 47.295 31.3845 47.405 31.3845 47.535C31.3845 47.665 31.3645 47.775 31.3245 47.865C31.2845 47.955 31.2395 48 31.1895 48H30.7845C30.1445 48 29.6695 47.83 29.3595 47.49V47.64C29.3595 48.3 29.1945 48.925 28.8645 49.515C28.5345 50.115 28.1245 50.595 27.6345 50.955C27.1445 51.315 26.6695 51.495 26.2095 51.495ZM31.1885 48C31.1385 48 31.0935 47.955 31.0535 47.865C31.0135 47.775 30.9935 47.665 30.9935 47.535C30.9935 47.405 31.0135 47.295 31.0535 47.205C31.0935 47.115 31.1385 47.07 31.1885 47.07C31.9485 47.07 32.6035 46.99 33.1535 46.83C33.7135 46.66 34.1185 46.43 34.3685 46.14L34.0235 43.44L34.6835 43.005L34.7735 43.05C34.9535 44.47 35.0435 45.38 35.0435 45.78C35.0435 46.13 34.9635 46.44 34.8035 46.71C34.6535 46.97 34.4435 47.185 34.1735 47.355C33.5335 47.785 32.5385 48 31.1885 48ZM31.9985 50.64V50.46L32.3735 49.635L33.3785 50.115V50.28L33.0035 51.09L31.9985 50.64ZM39.5346 50.895C38.6946 50.895 38.0296 50.7 37.5396 50.31C37.0596 49.92 36.8196 49.295 36.8196 48.435C36.8196 47.775 36.9846 46.76 37.3146 45.39L37.7796 45.42L37.8396 45.51C37.5496 46.81 37.4046 47.71 37.4046 48.21C37.4046 48.85 37.5996 49.3 37.9896 49.56C38.3896 49.83 38.9746 49.965 39.7446 49.965C40.5246 49.965 41.2846 49.855 42.0246 49.635C42.7746 49.415 43.3596 49.13 43.7796 48.78C43.6696 47.84 43.4746 46.495 43.1946 44.745L43.7946 44.37L43.9146 44.415L44.1096 45.63C44.2096 46.19 44.3896 46.57 44.6496 46.77C44.9196 46.97 45.3646 47.07 45.9846 47.07C46.6546 47.07 47.1296 46.975 47.4096 46.785C47.6896 46.595 47.8346 46.325 47.8446 45.975L47.8596 44.955L48.4746 44.94V46.725C48.6146 46.835 48.7946 46.92 49.0146 46.98C49.2446 47.04 49.4796 47.07 49.7196 47.07C50.1496 47.07 50.4746 46.96 50.6946 46.74L50.2746 43.65L50.9346 43.215L51.0246 43.275C51.1146 43.975 51.2096 44.76 51.3096 45.63C51.3296 45.87 51.3396 46.04 51.3396 46.14C51.3396 46.63 51.2446 47.01 51.0546 47.28C50.9146 47.51 50.7096 47.69 50.4396 47.82C50.1696 47.94 49.8696 48 49.5396 48C49.2096 48 48.8896 47.94 48.5796 47.82C48.2696 47.7 48.0646 47.535 47.9646 47.325C47.7746 47.535 47.4996 47.7 47.1396 47.82C46.7796 47.94 46.3796 48 45.9396 48C45.1896 48 44.6596 47.855 44.3496 47.565C44.3796 47.865 44.3946 48.125 44.3946 48.345C44.3946 48.625 44.3496 48.88 44.2596 49.11C44.1796 49.35 44.0046 49.565 43.7346 49.755C43.2446 50.105 42.6296 50.38 41.8896 50.58C41.1496 50.79 40.3646 50.895 39.5346 50.895ZM46.8096 41.025V40.86L47.1546 40.11L48.0696 40.545V40.695L47.7246 41.445L46.8096 41.025ZM48.1746 42.54V42.36L48.5196 41.61L49.4346 42.045V42.195L49.0896 42.945L48.1746 42.54ZM45.9996 42.66V42.48L46.3596 41.73L47.2746 42.165V42.315L46.9296 43.065L45.9996 42.66ZM54.4559 51.495C54.2559 51.495 53.9959 51.455 53.6759 51.375C53.3559 51.295 53.0559 51.205 52.7759 51.105L52.5959 50.52L52.6409 50.46C53.3209 50.58 53.8209 50.64 54.1409 50.64C54.5909 50.64 55.0109 50.51 55.4009 50.25C55.8009 50 56.1409 49.67 56.4209 49.26C56.7009 48.86 56.9059 48.44 57.0359 48H54.8909C53.8409 48 53.3159 47.555 53.3159 46.665C53.3159 46.615 53.3259 46.49 53.3459 46.29C53.5459 44.33 54.2109 43.35 55.3409 43.35C55.7709 43.35 56.1409 43.45 56.4509 43.65C56.7609 43.84 57.0009 44.095 57.1709 44.415C57.3009 44.645 57.4209 44.965 57.5309 45.375C57.6409 45.775 57.7109 46.165 57.7409 46.545L57.7559 47.07H58.5509C58.6109 47.07 58.6609 47.115 58.7009 47.205C58.7409 47.295 58.7609 47.405 58.7609 47.535C58.7609 47.665 58.7409 47.775 58.7009 47.865C58.6609 47.955 58.6109 48 58.5509 48H57.6959C57.5659 48.64 57.3209 49.225 56.9609 49.755C56.6109 50.295 56.2059 50.72 55.7459 51.03C55.2959 51.34 54.8659 51.495 54.4559 51.495ZM57.0809 47.115C57.0709 46.705 56.9959 46.24 56.8559 45.72C56.7259 45.19 56.5809 44.77 56.4209 44.46C56.0409 44.27 55.6659 44.175 55.2959 44.175C54.8959 44.175 54.5959 44.305 54.3959 44.565C54.2059 44.825 54.0709 45.32 53.9909 46.05C53.9709 46.23 53.9609 46.345 53.9609 46.395C53.9609 46.655 54.0459 46.84 54.2159 46.95C54.3859 47.06 54.6759 47.115 55.0859 47.115H57.0809ZM58.5518 48C58.5018 48 58.4568 47.955 58.4168 47.865C58.3768 47.775 58.3568 47.665 58.3568 47.535C58.3568 47.405 58.3768 47.295 58.4168 47.205C58.4568 47.115 58.5018 47.07 58.5518 47.07H59.2418C59.9418 47.07 60.6118 46.975 61.2518 46.785C61.8918 46.585 62.5368 46.265 63.1868 45.825L64.9418 44.685L61.9118 43.62C61.6218 43.52 61.4168 43.47 61.2968 43.47C61.1368 43.47 61.0018 43.55 60.8918 43.71L60.2768 44.64H60.2168L59.8568 44.205L60.2168 43.59C60.4268 43.22 60.6118 42.96 60.7718 42.81C60.9318 42.65 61.1418 42.57 61.4018 42.57C61.5418 42.57 61.7418 42.615 62.0018 42.705C62.2618 42.785 62.6768 42.93 63.2468 43.14C63.3368 43.17 63.6468 43.285 64.1768 43.485C64.7168 43.675 65.2418 43.84 65.7518 43.98C65.9618 44.05 66.2068 44.11 66.4868 44.16L67.0718 44.28L67.1168 44.43L66.8168 45.15L65.7518 44.955L63.5168 46.485C62.0668 47.495 60.6218 48 59.1818 48H58.5518ZM60.5768 40.875V40.695L60.9518 39.87L61.9568 40.35V40.515L61.5818 41.325L60.5768 40.875Z" fill="black"/>
<path d="M145.618 48.15C144.268 48.15 143.363 47.935 142.903 47.505C142.453 47.075 142.248 46.485 142.288 45.735C142.338 45.235 142.393 44.83 142.453 44.52L142.618 43.545L143.068 43.485L143.158 43.575L142.903 45.405C142.883 45.565 142.873 45.69 142.873 45.78C142.873 46.24 143.088 46.595 143.518 46.845C143.948 47.095 144.728 47.22 145.858 47.22C147.088 47.22 148.043 47.185 148.723 47.115C149.403 47.045 149.898 46.925 150.208 46.755C150.528 46.575 150.718 46.325 150.778 46.005L151.093 44.22L151.198 44.145L151.708 44.31L151.453 45.915L151.438 46.065C151.438 46.365 151.558 46.61 151.798 46.8C152.038 46.98 152.388 47.07 152.848 47.07H153.313C153.373 47.07 153.418 47.115 153.448 47.205C153.488 47.295 153.508 47.405 153.508 47.535C153.508 47.675 153.488 47.79 153.448 47.88C153.418 47.96 153.373 48 153.313 48H152.818C152.338 48 151.943 47.91 151.633 47.73C151.323 47.55 151.108 47.305 150.988 46.995C150.718 47.495 150.113 47.815 149.173 47.955C148.243 48.085 147.058 48.15 145.618 48.15ZM145.603 50.64V50.46L145.978 49.635L146.983 50.115V50.28L146.608 51.09L145.603 50.64ZM153.312 48C153.262 48 153.217 47.955 153.177 47.865C153.137 47.775 153.117 47.665 153.117 47.535C153.117 47.405 153.137 47.295 153.177 47.205C153.217 47.115 153.262 47.07 153.312 47.07H153.793C154.383 47.07 154.828 46.985 155.128 46.815C155.438 46.635 155.673 46.315 155.833 45.855L156.358 44.445L156.478 44.4L156.928 44.625L156.448 46.035C156.428 46.115 156.388 46.235 156.328 46.395C156.458 46.605 156.693 46.77 157.033 46.89C157.373 47.01 157.758 47.07 158.188 47.07C158.858 47.07 159.333 46.975 159.613 46.785C159.893 46.595 160.038 46.325 160.048 45.975L160.063 44.955L160.678 44.94V46.725C160.818 46.825 161.002 46.91 161.232 46.98C161.462 47.04 161.692 47.07 161.923 47.07C162.353 47.07 162.678 46.96 162.898 46.74L162.478 43.65L163.138 43.215L163.228 43.275C163.318 43.955 163.408 44.66 163.498 45.39C163.538 45.77 163.558 46.04 163.558 46.2C163.558 46.55 163.503 46.84 163.393 47.07C163.263 47.37 163.048 47.6 162.748 47.76C162.448 47.92 162.113 48 161.743 48C161.413 48 161.093 47.94 160.783 47.82C160.473 47.7 160.268 47.535 160.168 47.325C159.978 47.535 159.703 47.7 159.343 47.82C158.983 47.94 158.583 48 158.143 48C157.623 48 157.163 47.92 156.763 47.76C156.373 47.59 156.108 47.365 155.968 47.085C155.768 47.405 155.493 47.64 155.143 47.79C154.803 47.93 154.373 48 153.853 48H153.312ZM167.85 48C166.97 48 166.34 47.825 165.96 47.475C165.58 47.115 165.385 46.545 165.375 45.765L165.33 38.7L166.05 38.52V45.555C166.05 45.975 166.12 46.295 166.26 46.515C166.4 46.735 166.595 46.885 166.845 46.965C167.105 47.035 167.44 47.07 167.85 47.07C168.59 47.07 169.125 46.995 169.455 46.845C169.785 46.695 169.985 46.415 170.055 46.005L170.37 44.22L170.475 44.145L170.985 44.31L170.73 45.915L170.715 46.065C170.715 46.365 170.835 46.61 171.075 46.8C171.325 46.98 171.68 47.07 172.14 47.07H172.59C172.65 47.07 172.7 47.115 172.74 47.205C172.78 47.295 172.8 47.405 172.8 47.535C172.8 47.665 172.78 47.775 172.74 47.865C172.7 47.955 172.65 48 172.59 48H172.095C171.635 48 171.25 47.915 170.94 47.745C170.63 47.575 170.415 47.345 170.295 47.055C170.095 47.405 169.805 47.65 169.425 47.79C169.045 47.93 168.52 48 167.85 48ZM168.195 42.105V41.925L168.57 41.1L169.575 41.58V41.745L169.2 42.555L168.195 42.105ZM172.395 47.535C172.395 47.405 172.415 47.295 172.455 47.205C172.495 47.115 172.54 47.07 172.59 47.07H172.92C173.33 47.07 173.655 46.975 173.895 46.785C174.145 46.595 174.365 46.325 174.555 45.975L175.545 44.235C175.725 43.925 175.925 43.7 176.145 43.56C176.375 43.42 176.665 43.35 177.015 43.35C177.625 43.35 178.11 43.66 178.47 44.28C178.84 44.89 179.025 45.695 179.025 46.695C179.025 46.835 179.015 47.045 178.995 47.325L178.515 48.15C177.715 48.14 176.97 48.045 176.28 47.865C175.6 47.685 175.035 47.4 174.585 47.01C174.365 47.35 174.13 47.6 173.88 47.76C173.63 47.92 173.275 48 172.815 48H172.59C172.54 48 172.495 47.955 172.455 47.865C172.415 47.775 172.395 47.665 172.395 47.535ZM175.08 46.275C175.32 46.535 175.75 46.765 176.37 46.965C176.99 47.155 177.645 47.255 178.335 47.265C178.375 46.375 178.27 45.655 178.02 45.105C177.78 44.555 177.42 44.275 176.94 44.265C176.68 44.265 176.425 44.3 176.175 44.37L175.635 45.3L175.08 46.275ZM185.22 48.15C184.58 48.15 184.11 48.01 183.81 47.73C183.52 47.45 183.405 46.99 183.465 46.35L183.555 45.42L184.035 45.33L184.095 45.39L184.05 46.245C184.02 46.655 184.11 46.92 184.32 47.04C184.53 47.16 184.895 47.22 185.415 47.22C186.095 47.22 186.72 47.125 187.29 46.935C187.86 46.735 188.235 46.47 188.415 46.14C188.335 45.88 188.165 45.555 187.905 45.165C187.655 44.765 187.11 43.965 186.27 42.765L185.865 42.195L186.42 41.49L186.87 42.135C187.59 43.155 188.115 43.96 188.445 44.55C188.785 45.13 188.955 45.62 188.955 46.02C188.955 46.52 188.765 46.93 188.385 47.25C188.005 47.56 187.53 47.79 186.96 47.94C186.39 48.08 185.81 48.15 185.22 48.15ZM189.497 51.495C189.167 51.495 188.782 51.39 188.342 51.18L188.162 50.595L188.207 50.535C188.497 50.625 188.872 50.66 189.332 50.64C189.932 50.6 190.437 50.315 190.847 49.785C191.267 49.265 191.537 48.67 191.657 48C191.587 47.3 191.412 46.06 191.132 44.28L191.717 43.875L191.822 43.95C192.132 45.87 192.287 47.1 192.287 47.64C192.287 48.28 192.157 48.89 191.897 49.47C191.637 50.06 191.302 50.535 190.892 50.895C190.482 51.265 190.077 51.46 189.677 51.48L189.497 51.495ZM195.462 51.495C195.262 51.495 195.002 51.455 194.682 51.375C194.362 51.295 194.062 51.205 193.782 51.105L193.602 50.52L193.647 50.46C194.327 50.58 194.827 50.64 195.147 50.64C195.597 50.64 196.017 50.51 196.407 50.25C196.807 50 197.147 49.67 197.427 49.26C197.707 48.86 197.912 48.44 198.042 48H195.897C194.847 48 194.322 47.555 194.322 46.665C194.322 46.615 194.332 46.49 194.352 46.29C194.552 44.33 195.217 43.35 196.347 43.35C196.777 43.35 197.147 43.45 197.457 43.65C197.767 43.84 198.007 44.095 198.177 44.415C198.307 44.645 198.427 44.965 198.537 45.375C198.647 45.775 198.717 46.165 198.747 46.545L198.762 47.07H199.557C199.617 47.07 199.667 47.115 199.707 47.205C199.747 47.295 199.767 47.405 199.767 47.535C199.767 47.665 199.747 47.775 199.707 47.865C199.667 47.955 199.617 48 199.557 48H198.702C198.572 48.64 198.327 49.225 197.967 49.755C197.617 50.295 197.212 50.72 196.752 51.03C196.302 51.34 195.872 51.495 195.462 51.495ZM198.087 47.115C198.077 46.705 198.002 46.24 197.862 45.72C197.732 45.19 197.587 44.77 197.427 44.46C197.047 44.27 196.672 44.175 196.302 44.175C195.902 44.175 195.602 44.305 195.402 44.565C195.212 44.825 195.077 45.32 194.997 46.05C194.977 46.23 194.967 46.345 194.967 46.395C194.967 46.655 195.052 46.84 195.222 46.95C195.392 47.06 195.682 47.115 196.092 47.115H198.087ZM199.558 48C199.508 48 199.463 47.955 199.423 47.865C199.383 47.775 199.363 47.665 199.363 47.535C199.363 47.405 199.383 47.295 199.423 47.205C199.463 47.115 199.508 47.07 199.558 47.07H200.248C200.948 47.07 201.618 46.975 202.258 46.785C202.898 46.585 203.543 46.265 204.193 45.825L205.948 44.685L202.918 43.62C202.628 43.52 202.423 43.47 202.303 43.47C202.143 43.47 202.008 43.55 201.898 43.71L201.283 44.64H201.223L200.863 44.205L201.223 43.59C201.433 43.22 201.618 42.96 201.778 42.81C201.938 42.65 202.148 42.57 202.408 42.57C202.548 42.57 202.748 42.615 203.008 42.705C203.268 42.785 203.683 42.93 204.253 43.14C204.343 43.17 204.653 43.285 205.183 43.485C205.723 43.675 206.248 43.84 206.758 43.98C206.968 44.05 207.213 44.11 207.493 44.16L208.078 44.28L208.123 44.43L207.823 45.15L206.758 44.955L204.523 46.485C203.073 47.495 201.628 48 200.188 48H199.558ZM201.583 40.875V40.695L201.958 39.87L202.963 40.35V40.515L202.588 41.325L201.583 40.875ZM208.275 51.495C208.075 51.495 207.815 51.45 207.495 51.36C207.175 51.28 206.915 51.195 206.715 51.105L206.535 50.52L206.58 50.46C207.12 50.58 207.575 50.64 207.945 50.64C208.445 50.64 208.9 50.495 209.31 50.205C209.72 49.925 210.05 49.57 210.3 49.14C210.56 48.72 210.725 48.3 210.795 47.88C210.755 47.35 210.58 46.15 210.27 44.28L210.855 43.875L210.96 43.95L211.245 45.69C211.345 46.23 211.515 46.595 211.755 46.785C211.995 46.975 212.38 47.07 212.91 47.07H213.255C213.305 47.07 213.35 47.115 213.39 47.205C213.43 47.295 213.45 47.405 213.45 47.535C213.45 47.665 213.43 47.775 213.39 47.865C213.35 47.955 213.305 48 213.255 48H212.85C212.21 48 211.735 47.83 211.425 47.49V47.64C211.425 48.3 211.26 48.925 210.93 49.515C210.6 50.115 210.19 50.595 209.7 50.955C209.21 51.315 208.735 51.495 208.275 51.495ZM213.254 48C213.204 48 213.159 47.955 213.119 47.865C213.079 47.775 213.059 47.665 213.059 47.535C213.059 47.405 213.079 47.295 213.119 47.205C213.159 47.115 213.204 47.07 213.254 47.07C214.014 47.07 214.669 46.99 215.219 46.83C215.779 46.66 216.184 46.43 216.434 46.14L216.089 43.44L216.749 43.005L216.839 43.05C217.019 44.47 217.109 45.38 217.109 45.78C217.109 46.13 217.029 46.44 216.869 46.71C216.719 46.97 216.509 47.185 216.239 47.355C215.599 47.785 214.604 48 213.254 48ZM214.064 50.64V50.46L214.439 49.635L215.444 50.115V50.28L215.069 51.09L214.064 50.64Z" fill="black"/>
<path d="M88.0929 48.15C86.7429 48.15 85.8379 47.935 85.3779 47.505C84.9279 47.075 84.7229 46.485 84.7629 45.735C84.8129 45.235 84.8679 44.83 84.9279 44.52L85.0929 43.545L85.5429 43.485L85.6329 43.575L85.3779 45.405C85.3579 45.565 85.3479 45.69 85.3479 45.78C85.3479 46.24 85.5629 46.595 85.9929 46.845C86.4229 47.095 87.2029 47.22 88.3329 47.22C89.5629 47.22 90.5179 47.185 91.1979 47.115C91.8779 47.045 92.3729 46.925 92.6829 46.755C93.0029 46.575 93.1929 46.325 93.2529 46.005L93.5679 44.22L93.6729 44.145L94.1829 44.31L93.9279 45.915L93.9129 46.065C93.9129 46.365 94.0329 46.61 94.2729 46.8C94.5129 46.98 94.8629 47.07 95.3229 47.07H95.7879C95.8479 47.07 95.8929 47.115 95.9229 47.205C95.9629 47.295 95.9829 47.405 95.9829 47.535C95.9829 47.675 95.9629 47.79 95.9229 47.88C95.8929 47.96 95.8479 48 95.7879 48H95.2929C94.8129 48 94.4179 47.91 94.1079 47.73C93.7979 47.55 93.5829 47.305 93.4629 46.995C93.1929 47.495 92.5879 47.815 91.6479 47.955C90.7179 48.085 89.5329 48.15 88.0929 48.15ZM89.7729 42.66V42.495L90.1329 41.73L91.0479 42.18V42.33L90.6879 43.065L89.7729 42.66ZM87.7629 42.78V42.615L88.1079 41.85L89.0379 42.3V42.45L88.6779 43.185L87.7629 42.78ZM95.7871 48C95.7371 48 95.6921 47.955 95.6521 47.865C95.6121 47.775 95.5921 47.665 95.5921 47.535C95.5921 47.405 95.6121 47.295 95.6521 47.205C95.6921 47.115 95.7371 47.07 95.7871 47.07H96.2521C97.1621 47.07 97.9221 47.005 98.5321 46.875C99.1521 46.735 99.6371 46.51 99.9871 46.2C100.057 45.78 100.092 45.375 100.092 44.985C99.3721 45.175 98.6471 45.27 97.9171 45.27C97.3971 45.27 97.0071 45.165 96.7471 44.955C96.4871 44.745 96.3521 44.42 96.3421 43.98C96.3421 43.92 96.3521 43.78 96.3721 43.56C96.4821 42.55 96.7021 41.81 97.0321 41.34C97.3721 40.86 97.8221 40.62 98.3821 40.62C98.8221 40.62 99.1921 40.72 99.4921 40.92C99.7921 41.12 100.027 41.375 100.197 41.685C100.387 42.035 100.537 42.49 100.647 43.05C100.757 43.61 100.812 44.15 100.812 44.67C100.812 45.84 100.552 46.66 100.032 47.13C99.6721 47.45 99.1671 47.675 98.5171 47.805C97.8671 47.935 97.1721 48 96.4321 48H95.7871ZM98.1121 44.385C98.7421 44.385 99.3921 44.32 100.062 44.19C100.032 43.75 99.9571 43.3 99.8371 42.84C99.7171 42.38 99.5871 42.005 99.4471 41.715C99.0871 41.535 98.7121 41.445 98.3221 41.445C97.9421 41.445 97.6471 41.58 97.4371 41.85C97.2371 42.11 97.0971 42.6 97.0171 43.32C97.0071 43.41 97.0021 43.525 97.0021 43.665C97.0021 43.925 97.0821 44.11 97.2421 44.22C97.4121 44.33 97.7021 44.385 98.1121 44.385ZM98.5321 38.805V38.64L98.8921 37.875L99.8071 38.325V38.475L99.4471 39.21L98.5321 38.805ZM96.5221 38.925V38.76L96.8671 37.995L97.7971 38.445V38.595L97.4371 39.33L96.5221 38.925ZM103.908 51.495C103.708 51.495 103.448 51.455 103.128 51.375C102.808 51.295 102.508 51.205 102.228 51.105L102.048 50.52L102.093 50.46C102.773 50.58 103.273 50.64 103.593 50.64C104.073 50.64 104.523 50.495 104.943 50.205C105.363 49.915 105.713 49.545 105.993 49.095C106.283 48.645 106.473 48.19 106.563 47.73C105.803 47.91 105.063 48 104.343 48C103.293 48 102.768 47.555 102.768 46.665C102.768 46.615 102.778 46.49 102.798 46.29C102.998 44.33 103.663 43.35 104.793 43.35C105.223 43.35 105.593 43.45 105.903 43.65C106.213 43.84 106.453 44.095 106.623 44.415C106.773 44.705 106.908 45.115 107.028 45.645C107.158 46.165 107.223 46.655 107.223 47.115C107.223 47.885 107.048 48.605 106.698 49.275C106.348 49.955 105.913 50.495 105.393 50.895C104.873 51.295 104.378 51.495 103.908 51.495ZM104.538 47.115C105.178 47.115 105.843 47.05 106.533 46.92C106.503 46.51 106.423 46.07 106.293 45.6C106.163 45.12 106.023 44.74 105.873 44.46C105.493 44.27 105.118 44.175 104.748 44.175C104.348 44.175 104.048 44.305 103.848 44.565C103.658 44.825 103.523 45.32 103.443 46.05C103.423 46.23 103.413 46.34 103.413 46.38C103.413 46.65 103.493 46.84 103.653 46.95C103.823 47.06 104.118 47.115 104.538 47.115ZM108.256 51.495C107.926 51.495 107.541 51.39 107.101 51.18L106.921 50.595L106.966 50.535C107.256 50.625 107.631 50.66 108.091 50.64C108.511 50.62 108.886 50.47 109.216 50.19C109.546 49.92 109.816 49.58 110.026 49.17C110.236 48.76 110.371 48.34 110.431 47.91C110.381 47.5 110.271 46.74 110.101 45.63L109.891 44.28L110.476 43.875L110.581 43.95L110.866 45.69C110.966 46.23 111.136 46.595 111.376 46.785C111.616 46.975 112.001 47.07 112.531 47.07H112.861C112.921 47.07 112.971 47.115 113.011 47.205C113.051 47.295 113.071 47.405 113.071 47.535C113.071 47.665 113.051 47.775 113.011 47.865C112.971 47.955 112.921 48 112.861 48H112.471C111.811 48 111.336 47.825 111.046 47.475V47.625C111.046 48.275 110.916 48.89 110.656 49.47C110.396 50.06 110.061 50.535 109.651 50.895C109.251 51.265 108.846 51.46 108.436 51.48L108.256 51.495ZM112.867 48C112.817 48 112.772 47.955 112.732 47.865C112.692 47.775 112.672 47.665 112.672 47.535C112.672 47.405 112.692 47.295 112.732 47.205C112.772 47.115 112.817 47.07 112.867 47.07H113.347C113.937 47.07 114.382 46.985 114.682 46.815C114.992 46.635 115.227 46.315 115.387 45.855L115.912 44.445L116.032 44.4L116.482 44.625L116.002 46.035C115.982 46.115 115.942 46.235 115.882 46.395C116.012 46.605 116.247 46.77 116.587 46.89C116.927 47.01 117.312 47.07 117.742 47.07C118.412 47.07 118.887 46.975 119.167 46.785C119.447 46.595 119.592 46.325 119.602 45.975L119.617 44.955L120.232 44.94V46.725C120.372 46.825 120.557 46.91 120.787 46.98C121.017 47.04 121.247 47.07 121.477 47.07C121.907 47.07 122.232 46.96 122.452 46.74L122.032 43.65L122.692 43.215L122.782 43.275C122.872 43.955 122.962 44.66 123.052 45.39C123.092 45.77 123.112 46.04 123.112 46.2C123.112 46.55 123.057 46.84 122.947 47.07C122.817 47.37 122.602 47.6 122.302 47.76C122.002 47.92 121.667 48 121.297 48C120.967 48 120.647 47.94 120.337 47.82C120.027 47.7 119.822 47.535 119.722 47.325C119.532 47.535 119.257 47.7 118.897 47.82C118.537 47.94 118.137 48 117.697 48C117.177 48 116.717 47.92 116.317 47.76C115.927 47.59 115.662 47.365 115.522 47.085C115.322 47.405 115.047 47.64 114.697 47.79C114.357 47.93 113.927 48 113.407 48H112.867Z" fill="black"/>
<path d="M235.289 16C234.169 16 233.335 15.6933 232.789 15.08C232.242 14.4667 231.962 13.5333 231.949 12.28L231.849 2.78L233.889 2.24V11.22C233.889 11.9 234.009 12.36 234.249 12.6C234.502 12.8267 234.929 12.94 235.529 12.94C235.849 12.94 236.215 12.92 236.629 12.88C236.389 12.5333 236.269 12.1 236.269 11.58C236.269 11.2867 236.329 10.94 236.449 10.54C236.742 9.59333 237.002 8.94 237.229 8.58L236.409 8.32L236.929 6.02L237.229 5.86L242.189 7.46C243.322 7.82 244.209 8.22667 244.849 8.68C245.489 9.13333 245.949 9.66667 246.229 10.28C246.509 10.8933 246.662 11.6533 246.689 12.56C246.689 12.8533 246.662 13.4133 246.609 14.24L245.389 16.04L241.469 15.58C240.469 15.4733 239.715 15.3267 239.209 15.14C238.622 15.42 237.975 15.6333 237.269 15.78C236.562 15.9267 235.902 16 235.289 16ZM239.689 12.56C240.129 12.2933 240.475 12 240.729 11.68C240.982 11.36 241.109 11.06 241.109 10.78C241.109 10.4867 241.009 10.2267 240.809 10C240.609 9.77333 240.329 9.59333 239.969 9.46C239.609 9.32667 239.175 9.24 238.669 9.2C238.469 9.52 238.269 10.0467 238.069 10.78C238.029 10.9133 238.009 11.04 238.009 11.16C238.009 11.8267 238.569 12.2933 239.689 12.56ZM244.869 13.3C244.882 13.0333 244.875 12.6933 244.849 12.28C244.769 11.8133 244.602 11.4267 244.349 11.12C244.095 10.8133 243.682 10.5667 243.109 10.38L242.529 10.18V10.76C242.515 11.4933 242.282 12.2067 241.829 12.9L242.469 12.98L244.869 13.3ZM256.909 16.2C255.016 16.2 253.696 15.92 252.949 15.36C252.203 14.7867 251.829 13.9667 251.829 12.9C251.829 12.3533 251.923 11.48 252.109 10.28C252.176 9.96 252.243 9.54667 252.309 9.04L253.809 8.82L253.989 9L253.669 11.28C253.656 11.36 253.649 11.4733 253.649 11.62C253.649 11.9533 253.749 12.2333 253.949 12.46C254.149 12.6733 254.516 12.84 255.049 12.96C255.583 13.08 256.343 13.14 257.329 13.14C259.023 13.14 260.403 13.0667 261.469 12.92C262.536 12.76 263.336 12.5667 263.869 12.34L263.369 9.1L265.369 7.84L265.589 7.98L265.669 8.6C265.776 9.37333 265.863 10.06 265.929 10.66C266.009 11.26 266.049 11.7333 266.049 12.08C266.049 13.3867 265.716 14.2867 265.049 14.78C264.343 15.3 263.236 15.6667 261.729 15.88C260.236 16.0933 258.629 16.2 256.909 16.2ZM258.629 7.88V7.58L259.369 5.98L261.249 6.86V7.14L260.509 8.72L258.629 7.88ZM255.769 8.04V7.74L256.509 6.14L258.389 7.02V7.3L257.649 8.88L255.769 8.04ZM266.963 20.72C266.67 20.72 266.29 20.6533 265.823 20.52C265.357 20.4 264.95 20.2533 264.603 20.08L264.083 18.22L264.223 18.02C264.89 18.0867 265.463 18.12 265.943 18.12C267.477 18.12 268.703 17.2733 269.623 15.58C269.463 14.4333 269.163 12.6733 268.723 10.3L270.523 9.14L270.763 9.3C271.043 10.7533 271.237 11.8733 271.343 12.66C271.463 13.4467 271.523 14.0933 271.523 14.6C271.523 15.6667 271.297 16.6667 270.843 17.6C270.403 18.5467 269.83 19.3 269.123 19.86C268.417 20.4333 267.697 20.72 266.963 20.72ZM280.686 20.72C279.899 19.8933 279.293 19.08 278.866 18.28C278.439 17.48 278.206 16.7133 278.166 15.98L277.306 16C276.079 16 275.179 15.7 274.606 15.1C274.033 14.5 273.739 13.56 273.726 12.28L273.626 2.78L275.666 2.24V11.22C275.666 11.9 275.786 12.36 276.026 12.6C276.279 12.8267 276.706 12.94 277.306 12.94L278.326 12.92C278.686 11.16 279.126 9.4 279.646 7.64L281.566 6.32L283.026 7.92C283.719 8.66667 284.173 9.29333 284.386 9.8C284.599 10.2933 284.706 10.8133 284.706 11.36C284.706 12.1467 284.519 12.82 284.146 13.38C283.746 13.98 283.226 14.48 282.586 14.88C281.946 15.2667 281.126 15.5533 280.126 15.74C280.219 16.22 280.406 16.68 280.686 17.12C280.979 17.5733 281.353 18.0267 281.806 18.48L283.286 16C283.726 15.2667 284.113 14.6933 284.446 14.28C284.793 13.8533 285.179 13.5267 285.606 13.3C286.046 13.06 286.566 12.94 287.166 12.94H287.786C287.933 12.94 288.053 13.0867 288.146 13.38C288.253 13.6733 288.306 14.0333 288.306 14.46C288.306 14.8867 288.253 15.2533 288.146 15.56C288.053 15.8533 287.933 16 287.786 16H287.046C286.579 16 286.199 16.0667 285.906 16.2C285.613 16.3467 285.359 16.56 285.146 16.84C284.933 17.1333 284.646 17.5933 284.286 18.22L282.826 20.72H280.686ZM280.086 12.94C280.873 12.9 281.499 12.7533 281.966 12.5C282.446 12.2333 282.779 11.9467 282.966 11.64C282.966 11.2667 282.366 10.4133 281.166 9.08C280.899 9.90667 280.686 10.5933 280.526 11.14C280.379 11.6733 280.233 12.2733 280.086 12.94ZM287.265 14.46C287.265 14.0333 287.318 13.6733 287.425 13.38C287.518 13.0867 287.638 12.94 287.785 12.94H288.205C288.725 12.94 289.138 12.8267 289.445 12.6C289.765 12.3733 290.038 12.06 290.265 11.66L291.345 9.74C291.625 9.23333 291.958 8.85333 292.345 8.6C292.732 8.33333 293.198 8.2 293.745 8.2C294.825 8.2 295.658 8.66667 296.245 9.6C296.832 10.52 297.125 11.7667 297.125 13.34C297.125 13.7 297.118 13.9733 297.105 14.16L295.825 16.2C294.745 16.2 293.725 16.0867 292.765 15.86C291.818 15.62 291.038 15.24 290.425 14.72C290.118 15.16 289.805 15.4867 289.485 15.7C289.165 15.9 288.698 16 288.085 16H287.785C287.638 16 287.518 15.8533 287.425 15.56C287.318 15.2533 287.265 14.8867 287.265 14.46ZM291.765 12.54C292.045 12.7933 292.518 13.02 293.185 13.22C293.852 13.4067 294.552 13.5133 295.285 13.54C295.298 12.7133 295.158 12.0267 294.865 11.48C294.572 10.9333 294.165 10.66 293.645 10.66C293.458 10.66 293.165 10.7067 292.765 10.8L291.765 12.54Z" fill="black"/>
<path d="M247.101 48.15C245.751 48.15 244.846 47.935 244.386 47.505C243.936 47.075 243.731 46.485 243.771 45.735C243.821 45.235 243.876 44.83 243.936 44.52L244.101 43.545L244.551 43.485L244.641 43.575L244.386 45.405C244.366 45.565 244.356 45.69 244.356 45.78C244.356 46.24 244.571 46.595 245.001 46.845C245.431 47.095 246.211 47.22 247.341 47.22C248.571 47.22 249.526 47.185 250.206 47.115C250.886 47.045 251.381 46.925 251.691 46.755C252.011 46.575 252.201 46.325 252.261 46.005L252.576 44.22L252.681 44.145L253.191 44.31L252.936 45.915L252.921 46.065C252.921 46.365 253.041 46.61 253.281 46.8C253.521 46.98 253.871 47.07 254.331 47.07H254.796C254.856 47.07 254.901 47.115 254.931 47.205C254.971 47.295 254.991 47.405 254.991 47.535C254.991 47.675 254.971 47.79 254.931 47.88C254.901 47.96 254.856 48 254.796 48H254.301C253.821 48 253.426 47.91 253.116 47.73C252.806 47.55 252.591 47.305 252.471 46.995C252.201 47.495 251.596 47.815 250.656 47.955C249.726 48.085 248.541 48.15 247.101 48.15ZM248.781 42.66V42.495L249.141 41.73L250.056 42.18V42.33L249.696 43.065L248.781 42.66ZM246.771 42.78V42.615L247.116 41.85L248.046 42.3V42.45L247.686 43.185L246.771 42.78ZM254.795 48C254.745 48 254.7 47.955 254.66 47.865C254.62 47.775 254.6 47.665 254.6 47.535C254.6 47.405 254.62 47.295 254.66 47.205C254.7 47.115 254.745 47.07 254.795 47.07H255.545C256.575 47.04 257.36 46.95 257.9 46.8C258.45 46.64 258.84 46.42 259.07 46.14L258.725 43.44L259.385 43.005L259.49 43.05C259.66 44.54 259.745 45.45 259.745 45.78C259.745 46.42 259.495 46.915 258.995 47.265C258.355 47.705 257.21 47.95 255.56 48H254.795ZM256.805 50.58V50.415L257.165 49.65L258.08 50.1V50.25L257.72 50.985L256.805 50.58ZM254.87 50.7V50.535L255.215 49.77L256.13 50.22V50.37L255.785 51.105L254.87 50.7ZM260.276 51.495C259.946 51.495 259.561 51.39 259.121 51.18L258.941 50.595L258.986 50.535C259.276 50.625 259.651 50.66 260.111 50.64C260.531 50.62 260.906 50.47 261.236 50.19C261.566 49.92 261.836 49.58 262.046 49.17C262.256 48.76 262.391 48.34 262.451 47.91C262.401 47.5 262.291 46.74 262.121 45.63L261.911 44.28L262.496 43.875L262.601 43.95L262.886 45.69C262.986 46.23 263.156 46.595 263.396 46.785C263.636 46.975 264.021 47.07 264.551 47.07H264.881C264.941 47.07 264.991 47.115 265.031 47.205C265.071 47.295 265.091 47.405 265.091 47.535C265.091 47.665 265.071 47.775 265.031 47.865C264.991 47.955 264.941 48 264.881 48H264.491C263.831 48 263.356 47.825 263.066 47.475V47.625C263.066 48.275 262.936 48.89 262.676 49.47C262.416 50.06 262.081 50.535 261.671 50.895C261.271 51.265 260.866 51.46 260.456 51.48L260.276 51.495ZM264.888 48C264.838 48 264.793 47.955 264.753 47.865C264.713 47.775 264.693 47.665 264.693 47.535C264.693 47.405 264.713 47.295 264.753 47.205C264.793 47.115 264.838 47.07 264.888 47.07C265.648 47.07 266.303 46.99 266.853 46.83C267.413 46.66 267.818 46.43 268.068 46.14L267.723 43.44L268.383 43.005L268.473 43.05C268.653 44.47 268.743 45.38 268.743 45.78C268.743 46.13 268.663 46.44 268.503 46.71C268.353 46.97 268.143 47.185 267.873 47.355C267.233 47.785 266.238 48 264.888 48ZM267.108 50.58V50.415L267.468 49.65L268.383 50.1V50.25L268.023 50.985L267.108 50.58ZM265.173 50.7V50.535L265.518 49.77L266.433 50.22V50.37L266.088 51.105L265.173 50.7ZM272.465 48.15C271.825 48.15 271.355 48.01 271.055 47.73C270.765 47.45 270.65 46.99 270.71 46.35L270.8 45.42L271.28 45.33L271.34 45.39L271.295 46.245C271.265 46.655 271.355 46.92 271.565 47.04C271.775 47.16 272.14 47.22 272.66 47.22C273.13 47.22 273.59 47.15 274.04 47.01C274.5 46.87 274.835 46.695 275.045 46.485L274.55 41.97L275.15 41.52L275.255 41.565L275.645 45.345C275.715 46.005 275.87 46.46 276.11 46.71C276.36 46.95 276.76 47.07 277.31 47.07H277.685C277.745 47.07 277.795 47.115 277.835 47.205C277.875 47.295 277.895 47.405 277.895 47.535C277.895 47.665 277.875 47.775 277.835 47.865C277.795 47.955 277.745 48 277.685 48H277.235C276.305 48 275.695 47.675 275.405 47.025C275.195 47.375 274.78 47.65 274.16 47.85C273.55 48.05 272.985 48.15 272.465 48.15ZM277.495 47.535C277.495 47.405 277.515 47.295 277.555 47.205C277.595 47.115 277.64 47.07 277.69 47.07H278.02C278.43 47.07 278.755 46.975 278.995 46.785C279.245 46.595 279.465 46.325 279.655 45.975L280.645 44.235C280.825 43.925 281.025 43.7 281.245 43.56C281.475 43.42 281.765 43.35 282.115 43.35C282.725 43.35 283.21 43.66 283.57 44.28C283.94 44.89 284.125 45.695 284.125 46.695C284.125 46.835 284.115 47.045 284.095 47.325L283.615 48.15C282.815 48.14 282.07 48.045 281.38 47.865C280.7 47.685 280.135 47.4 279.685 47.01C279.465 47.35 279.23 47.6 278.98 47.76C278.73 47.92 278.375 48 277.915 48H277.69C277.64 48 277.595 47.955 277.555 47.865C277.515 47.775 277.495 47.665 277.495 47.535ZM280.18 46.275C280.42 46.535 280.85 46.765 281.47 46.965C282.09 47.155 282.745 47.255 283.435 47.265C283.475 46.375 283.37 45.655 283.12 45.105C282.88 44.555 282.52 44.275 282.04 44.265C281.78 44.265 281.525 44.3 281.275 44.37L280.735 45.3L280.18 46.275Z" fill="black"/>
<path d="M271.135 85.195C270.255 85.195 269.565 85 269.065 84.61C268.575 84.22 268.33 83.605 268.33 82.765C268.33 82.085 268.495 81.06 268.825 79.69L269.29 79.72L269.35 79.81C269.06 81.11 268.915 82.01 268.915 82.51C268.915 83.16 269.115 83.615 269.515 83.875C269.925 84.135 270.535 84.265 271.345 84.265C272.175 84.265 272.935 84.145 273.625 83.905C274.315 83.675 274.88 83.415 275.32 83.125L272.245 81.955L272.2 81.85L272.485 81.07H276.61C276.67 81.07 276.72 81.115 276.76 81.205C276.8 81.295 276.82 81.405 276.82 81.535C276.82 81.665 276.8 81.775 276.76 81.865C276.72 81.955 276.67 82 276.61 82H274.96C274.68 82 274.405 81.96 274.135 81.88C273.875 81.8 273.71 81.75 273.64 81.73L273.61 81.79C273.98 81.92 274.35 82.06 274.72 82.21C275.1 82.36 275.385 82.48 275.575 82.57C275.835 82.71 275.965 82.9 275.965 83.14C275.965 83.29 275.91 83.44 275.8 83.59C275.7 83.75 275.56 83.895 275.38 84.025C274.92 84.365 274.325 84.645 273.595 84.865C272.875 85.085 272.055 85.195 271.135 85.195ZM276.604 82C276.554 82 276.509 81.955 276.469 81.865C276.429 81.775 276.409 81.665 276.409 81.535C276.409 81.405 276.429 81.295 276.469 81.205C276.509 81.115 276.554 81.07 276.604 81.07H277.669C278.239 81.07 278.679 80.995 278.989 80.845C279.299 80.685 279.484 80.405 279.544 80.005L279.874 78.22L279.964 78.145L280.474 78.31L280.234 79.915C280.224 79.955 280.219 80.015 280.219 80.095C280.219 80.375 280.339 80.61 280.579 80.8C280.829 80.98 281.179 81.07 281.629 81.07H282.094C282.144 81.07 282.189 81.115 282.229 81.205C282.269 81.295 282.289 81.405 282.289 81.535C282.289 81.665 282.269 81.775 282.229 81.865C282.189 81.955 282.144 82 282.094 82H281.599C281.129 82 280.739 81.915 280.429 81.745C280.119 81.575 279.904 81.34 279.784 81.04C279.584 81.39 279.304 81.64 278.944 81.79C278.584 81.93 278.139 82 277.609 82H276.604ZM278.524 76.27V76.09L278.899 75.265L279.904 75.745V75.91L279.529 76.72L278.524 76.27ZM282.097 82C282.047 82 282.002 81.955 281.962 81.865C281.922 81.775 281.902 81.665 281.902 81.535C281.902 81.405 281.922 81.295 281.962 81.205C282.002 81.115 282.047 81.07 282.097 81.07H282.562C283.472 81.07 284.232 81.005 284.842 80.875C285.462 80.735 285.947 80.51 286.297 80.2C286.367 79.78 286.402 79.375 286.402 78.985C285.682 79.175 284.957 79.27 284.227 79.27C283.707 79.27 283.317 79.165 283.057 78.955C282.797 78.745 282.662 78.42 282.652 77.98C282.652 77.92 282.662 77.78 282.682 77.56C282.792 76.55 283.012 75.81 283.342 75.34C283.682 74.86 284.132 74.62 284.692 74.62C285.132 74.62 285.502 74.72 285.802 74.92C286.102 75.12 286.337 75.375 286.507 75.685C286.697 76.035 286.847 76.49 286.957 77.05C287.067 77.61 287.122 78.15 287.122 78.67C287.122 79.84 286.862 80.66 286.342 81.13C285.982 81.45 285.477 81.675 284.827 81.805C284.177 81.935 283.482 82 282.742 82H282.097ZM284.422 78.385C285.052 78.385 285.702 78.32 286.372 78.19C286.342 77.75 286.267 77.3 286.147 76.84C286.027 76.38 285.897 76.005 285.757 75.715C285.397 75.535 285.022 75.445 284.632 75.445C284.252 75.445 283.957 75.58 283.747 75.85C283.547 76.11 283.407 76.6 283.327 77.32C283.317 77.41 283.312 77.525 283.312 77.665C283.312 77.925 283.392 78.11 283.552 78.22C283.722 78.33 284.012 78.385 284.422 78.385ZM283.987 72.82V72.64L284.362 71.815L285.367 72.295V72.46L284.992 73.27L283.987 72.82Z" fill="black"/>
</svg>
