<svg width="323" height="108" viewBox="0 0 323 108" fill="none" xmlns="http://www.w3.org/2000/svg">
<path d="M0.5 0.5H322" stroke="#282828" stroke-opacity="0.23" stroke-linecap="round"/>
<rect x="244" y="46" width="67" height="28" rx="4" fill="#E5F1FE"/>
<rect x="148" y="46" width="89" height="28" rx="4" fill="#E5F1FE"/>
<rect x="91" y="46" width="50" height="28" rx="4" fill="#E5F1FE"/>
<rect x="9" y="46" width="75" height="28" rx="4" fill="#E5F1FE"/>
<rect x="272" y="80" width="38" height="28" rx="4" fill="#E5F1FE"/>
<rect x="210" y="80" width="55" height="28" rx="4" fill="#E5F1FE"/>
<path d="M16.155 62.15C15.515 62.15 15.045 62.01 14.745 61.73C14.455 61.45 14.34 60.99 14.4 60.35L14.49 59.42L14.97 59.33L15.03 59.39L14.985 60.245C14.955 60.655 15.045 60.92 15.255 61.04C15.465 61.16 15.83 61.22 16.35 61.22C17.03 61.22 17.655 61.125 18.225 60.935C18.795 60.735 19.17 60.47 19.35 60.14C19.27 59.88 19.1 59.555 18.84 59.165C18.59 58.765 18.045 57.965 17.205 56.765L16.8 56.195L17.355 55.49L17.805 56.135C18.525 57.155 19.05 57.96 19.38 58.55C19.72 59.13 19.89 59.62 19.89 60.02C19.89 60.52 19.7 60.93 19.32 61.25C18.94 61.56 18.465 61.79 17.895 61.94C17.325 62.08 16.745 62.15 16.155 62.15ZM20.4316 65.495C20.1016 65.495 19.7166 65.39 19.2766 65.18L19.0966 64.595L19.1416 64.535C19.4316 64.625 19.8066 64.66 20.2666 64.64C20.8666 64.6 21.3716 64.315 21.7816 63.785C22.2016 63.265 22.4716 62.67 22.5916 62C22.5216 61.3 22.3466 60.06 22.0666 58.28L22.6516 57.875L22.7566 57.95C23.0666 59.87 23.2216 61.1 23.2216 61.64C23.2216 62.28 23.0916 62.89 22.8316 63.47C22.5716 64.06 22.2366 64.535 21.8266 64.895C21.4166 65.265 21.0116 65.46 20.6116 65.48L20.4316 65.495ZM26.3964 65.495C26.1964 65.495 25.9364 65.455 25.6164 65.375C25.2964 65.295 24.9964 65.205 24.7164 65.105L24.5364 64.52L24.5814 64.46C25.2614 64.58 25.7614 64.64 26.0814 64.64C26.5314 64.64 26.9514 64.51 27.3414 64.25C27.7414 64 28.0814 63.67 28.3614 63.26C28.6414 62.86 28.8464 62.44 28.9764 62H26.8314C25.7814 62 25.2564 61.555 25.2564 60.665C25.2564 60.615 25.2664 60.49 25.2864 60.29C25.4864 58.33 26.1514 57.35 27.2814 57.35C27.7114 57.35 28.0814 57.45 28.3914 57.65C28.7014 57.84 28.9414 58.095 29.1114 58.415C29.2414 58.645 29.3614 58.965 29.4714 59.375C29.5814 59.775 29.6514 60.165 29.6814 60.545L29.6964 61.07H30.4914C30.5514 61.07 30.6014 61.115 30.6414 61.205C30.6814 61.295 30.7014 61.405 30.7014 61.535C30.7014 61.665 30.6814 61.775 30.6414 61.865C30.6014 61.955 30.5514 62 30.4914 62H29.6364C29.5064 62.64 29.2614 63.225 28.9014 63.755C28.5514 64.295 28.1464 64.72 27.6864 65.03C27.2364 65.34 26.8064 65.495 26.3964 65.495ZM29.0214 61.115C29.0114 60.705 28.9364 60.24 28.7964 59.72C28.6664 59.19 28.5214 58.77 28.3614 58.46C27.9814 58.27 27.6064 58.175 27.2364 58.175C26.8364 58.175 26.5364 58.305 26.3364 58.565C26.1464 58.825 26.0114 59.32 25.9314 60.05C25.9114 60.23 25.9014 60.345 25.9014 60.395C25.9014 60.655 25.9864 60.84 26.1564 60.95C26.3264 61.06 26.6164 61.115 27.0264 61.115H29.0214ZM30.4922 62C30.4422 62 30.3972 61.955 30.3572 61.865C30.3172 61.775 30.2972 61.665 30.2972 61.535C30.2972 61.405 30.3172 61.295 30.3572 61.205C30.3972 61.115 30.4422 61.07 30.4922 61.07H31.1822C31.8822 61.07 32.5522 60.975 33.1922 60.785C33.8322 60.585 34.4772 60.265 35.1272 59.825L36.8822 58.685L33.8522 57.62C33.5622 57.52 33.3572 57.47 33.2372 57.47C33.0772 57.47 32.9422 57.55 32.8322 57.71L32.2172 58.64H32.1572L31.7972 58.205L32.1572 57.59C32.3672 57.22 32.5522 56.96 32.7122 56.81C32.8722 56.65 33.0822 56.57 33.3422 56.57C33.4822 56.57 33.6822 56.615 33.9422 56.705C34.2022 56.785 34.6172 56.93 35.1872 57.14C35.2772 57.17 35.5872 57.285 36.1172 57.485C36.6572 57.675 37.1822 57.84 37.6922 57.98C37.9022 58.05 38.1472 58.11 38.4272 58.16L39.0122 58.28L39.0572 58.43L38.7572 59.15L37.6922 58.955L35.4572 60.485C34.0072 61.495 32.5622 62 31.1222 62H30.4922ZM32.5172 54.875V54.695L32.8922 53.87L33.8972 54.35V54.515L33.5222 55.325L32.5172 54.875ZM39.2095 65.495C39.0095 65.495 38.7495 65.45 38.4295 65.36C38.1095 65.28 37.8495 65.195 37.6495 65.105L37.4695 64.52L37.5145 64.46C38.0545 64.58 38.5095 64.64 38.8795 64.64C39.3795 64.64 39.8345 64.495 40.2445 64.205C40.6545 63.925 40.9845 63.57 41.2345 63.14C41.4945 62.72 41.6595 62.3 41.7295 61.88C41.6895 61.35 41.5145 60.15 41.2045 58.28L41.7895 57.875L41.8945 57.95L42.1795 59.69C42.2795 60.23 42.4495 60.595 42.6895 60.785C42.9295 60.975 43.3145 61.07 43.8445 61.07H44.1895C44.2395 61.07 44.2845 61.115 44.3245 61.205C44.3645 61.295 44.3845 61.405 44.3845 61.535C44.3845 61.665 44.3645 61.775 44.3245 61.865C44.2845 61.955 44.2395 62 44.1895 62H43.7845C43.1445 62 42.6695 61.83 42.3595 61.49V61.64C42.3595 62.3 42.1945 62.925 41.8645 63.515C41.5345 64.115 41.1245 64.595 40.6345 64.955C40.1445 65.315 39.6695 65.495 39.2095 65.495ZM44.1885 62C44.1385 62 44.0935 61.955 44.0535 61.865C44.0135 61.775 43.9935 61.665 43.9935 61.535C43.9935 61.405 44.0135 61.295 44.0535 61.205C44.0935 61.115 44.1385 61.07 44.1885 61.07C44.9485 61.07 45.6035 60.99 46.1535 60.83C46.7135 60.66 47.1185 60.43 47.3685 60.14L47.0235 57.44L47.6835 57.005L47.7735 57.05C47.9535 58.47 48.0435 59.38 48.0435 59.78C48.0435 60.13 47.9635 60.44 47.8035 60.71C47.6535 60.97 47.4435 61.185 47.1735 61.355C46.5335 61.785 45.5385 62 44.1885 62ZM44.9985 64.64V64.46L45.3735 63.635L46.3785 64.115V64.28L46.0035 65.09L44.9985 64.64ZM52.5346 64.895C51.6946 64.895 51.0296 64.7 50.5396 64.31C50.0596 63.92 49.8196 63.295 49.8196 62.435C49.8196 61.775 49.9846 60.76 50.3146 59.39L50.7796 59.42L50.8396 59.51C50.5496 60.81 50.4046 61.71 50.4046 62.21C50.4046 62.85 50.5996 63.3 50.9896 63.56C51.3896 63.83 51.9746 63.965 52.7446 63.965C53.5246 63.965 54.2846 63.855 55.0246 63.635C55.7746 63.415 56.3596 63.13 56.7796 62.78C56.6696 61.84 56.4746 60.495 56.1946 58.745L56.7946 58.37L56.9146 58.415L57.1096 59.63C57.2096 60.19 57.3896 60.57 57.6496 60.77C57.9196 60.97 58.3646 61.07 58.9846 61.07C59.6546 61.07 60.1296 60.975 60.4096 60.785C60.6896 60.595 60.8346 60.325 60.8446 59.975L60.8596 58.955L61.4746 58.94V60.725C61.6146 60.835 61.7946 60.92 62.0146 60.98C62.2446 61.04 62.4796 61.07 62.7196 61.07C63.1496 61.07 63.4746 60.96 63.6946 60.74L63.2746 57.65L63.9346 57.215L64.0246 57.275C64.1146 57.975 64.2096 58.76 64.3096 59.63C64.3296 59.87 64.3396 60.04 64.3396 60.14C64.3396 60.63 64.2446 61.01 64.0546 61.28C63.9146 61.51 63.7096 61.69 63.4396 61.82C63.1696 61.94 62.8696 62 62.5396 62C62.2096 62 61.8896 61.94 61.5796 61.82C61.2696 61.7 61.0646 61.535 60.9646 61.325C60.7746 61.535 60.4996 61.7 60.1396 61.82C59.7796 61.94 59.3796 62 58.9396 62C58.1896 62 57.6596 61.855 57.3496 61.565C57.3796 61.865 57.3946 62.125 57.3946 62.345C57.3946 62.625 57.3496 62.88 57.2596 63.11C57.1796 63.35 57.0046 63.565 56.7346 63.755C56.2446 64.105 55.6296 64.38 54.8896 64.58C54.1496 64.79 53.3646 64.895 52.5346 64.895ZM59.8096 55.025V54.86L60.1546 54.11L61.0696 54.545V54.695L60.7246 55.445L59.8096 55.025ZM61.1746 56.54V56.36L61.5196 55.61L62.4346 56.045V56.195L62.0896 56.945L61.1746 56.54ZM58.9996 56.66V56.48L59.3596 55.73L60.2746 56.165V56.315L59.9296 57.065L58.9996 56.66ZM67.4559 65.495C67.2559 65.495 66.9959 65.455 66.6759 65.375C66.3559 65.295 66.0559 65.205 65.7759 65.105L65.5959 64.52L65.6409 64.46C66.3209 64.58 66.8209 64.64 67.1409 64.64C67.5909 64.64 68.0109 64.51 68.4009 64.25C68.8009 64 69.1409 63.67 69.4209 63.26C69.7009 62.86 69.9059 62.44 70.0359 62H67.8909C66.8409 62 66.3159 61.555 66.3159 60.665C66.3159 60.615 66.3259 60.49 66.3459 60.29C66.5459 58.33 67.2109 57.35 68.3409 57.35C68.7709 57.35 69.1409 57.45 69.4509 57.65C69.7609 57.84 70.0009 58.095 70.1709 58.415C70.3009 58.645 70.4209 58.965 70.5309 59.375C70.6409 59.775 70.7109 60.165 70.7409 60.545L70.7559 61.07H71.5509C71.6109 61.07 71.6609 61.115 71.7009 61.205C71.7409 61.295 71.7609 61.405 71.7609 61.535C71.7609 61.665 71.7409 61.775 71.7009 61.865C71.6609 61.955 71.6109 62 71.5509 62H70.6959C70.5659 62.64 70.3209 63.225 69.9609 63.755C69.6109 64.295 69.2059 64.72 68.7459 65.03C68.2959 65.34 67.8659 65.495 67.4559 65.495ZM70.0809 61.115C70.0709 60.705 69.9959 60.24 69.8559 59.72C69.7259 59.19 69.5809 58.77 69.4209 58.46C69.0409 58.27 68.6659 58.175 68.2959 58.175C67.8959 58.175 67.5959 58.305 67.3959 58.565C67.2059 58.825 67.0709 59.32 66.9909 60.05C66.9709 60.23 66.9609 60.345 66.9609 60.395C66.9609 60.655 67.0459 60.84 67.2159 60.95C67.3859 61.06 67.6759 61.115 68.0859 61.115H70.0809ZM71.5518 62C71.5018 62 71.4568 61.955 71.4168 61.865C71.3768 61.775 71.3568 61.665 71.3568 61.535C71.3568 61.405 71.3768 61.295 71.4168 61.205C71.4568 61.115 71.5018 61.07 71.5518 61.07H72.2418C72.9418 61.07 73.6118 60.975 74.2518 60.785C74.8918 60.585 75.5368 60.265 76.1868 59.825L77.9418 58.685L74.9118 57.62C74.6218 57.52 74.4168 57.47 74.2968 57.47C74.1368 57.47 74.0018 57.55 73.8918 57.71L73.2768 58.64H73.2168L72.8568 58.205L73.2168 57.59C73.4268 57.22 73.6118 56.96 73.7718 56.81C73.9318 56.65 74.1418 56.57 74.4018 56.57C74.5418 56.57 74.7418 56.615 75.0018 56.705C75.2618 56.785 75.6768 56.93 76.2468 57.14C76.3368 57.17 76.6468 57.285 77.1768 57.485C77.7168 57.675 78.2418 57.84 78.7518 57.98C78.9618 58.05 79.2068 58.11 79.4868 58.16L80.0718 58.28L80.1168 58.43L79.8168 59.15L78.7518 58.955L76.5168 60.485C75.0668 61.495 73.6218 62 72.1818 62H71.5518ZM73.5768 54.875V54.695L73.9518 53.87L74.9568 54.35V54.515L74.5818 55.325L73.5768 54.875Z" fill="black"/>
<path d="M158.618 62.15C157.268 62.15 156.363 61.935 155.903 61.505C155.453 61.075 155.248 60.485 155.288 59.735C155.338 59.235 155.393 58.83 155.453 58.52L155.618 57.545L156.068 57.485L156.158 57.575L155.903 59.405C155.883 59.565 155.873 59.69 155.873 59.78C155.873 60.24 156.088 60.595 156.518 60.845C156.948 61.095 157.728 61.22 158.858 61.22C160.088 61.22 161.043 61.185 161.723 61.115C162.403 61.045 162.898 60.925 163.208 60.755C163.528 60.575 163.718 60.325 163.778 60.005L164.093 58.22L164.198 58.145L164.708 58.31L164.453 59.915L164.438 60.065C164.438 60.365 164.558 60.61 164.798 60.8C165.038 60.98 165.388 61.07 165.848 61.07H166.313C166.373 61.07 166.418 61.115 166.448 61.205C166.488 61.295 166.508 61.405 166.508 61.535C166.508 61.675 166.488 61.79 166.448 61.88C166.418 61.96 166.373 62 166.313 62H165.818C165.338 62 164.943 61.91 164.633 61.73C164.323 61.55 164.108 61.305 163.988 60.995C163.718 61.495 163.113 61.815 162.173 61.955C161.243 62.085 160.058 62.15 158.618 62.15ZM158.603 64.64V64.46L158.978 63.635L159.983 64.115V64.28L159.608 65.09L158.603 64.64ZM166.312 62C166.262 62 166.217 61.955 166.177 61.865C166.137 61.775 166.117 61.665 166.117 61.535C166.117 61.405 166.137 61.295 166.177 61.205C166.217 61.115 166.262 61.07 166.312 61.07H166.793C167.383 61.07 167.828 60.985 168.128 60.815C168.438 60.635 168.673 60.315 168.833 59.855L169.358 58.445L169.478 58.4L169.928 58.625L169.448 60.035C169.428 60.115 169.388 60.235 169.328 60.395C169.458 60.605 169.693 60.77 170.033 60.89C170.373 61.01 170.758 61.07 171.188 61.07C171.858 61.07 172.333 60.975 172.613 60.785C172.893 60.595 173.038 60.325 173.048 59.975L173.063 58.955L173.678 58.94V60.725C173.818 60.825 174.002 60.91 174.232 60.98C174.462 61.04 174.692 61.07 174.923 61.07C175.353 61.07 175.678 60.96 175.898 60.74L175.478 57.65L176.138 57.215L176.228 57.275C176.318 57.955 176.408 58.66 176.498 59.39C176.538 59.77 176.558 60.04 176.558 60.2C176.558 60.55 176.503 60.84 176.393 61.07C176.263 61.37 176.048 61.6 175.748 61.76C175.448 61.92 175.113 62 174.743 62C174.413 62 174.093 61.94 173.783 61.82C173.473 61.7 173.268 61.535 173.168 61.325C172.978 61.535 172.703 61.7 172.343 61.82C171.983 61.94 171.583 62 171.143 62C170.623 62 170.163 61.92 169.763 61.76C169.373 61.59 169.108 61.365 168.968 61.085C168.768 61.405 168.493 61.64 168.143 61.79C167.803 61.93 167.373 62 166.853 62H166.312ZM180.85 62C179.97 62 179.34 61.825 178.96 61.475C178.58 61.115 178.385 60.545 178.375 59.765L178.33 52.7L179.05 52.52V59.555C179.05 59.975 179.12 60.295 179.26 60.515C179.4 60.735 179.595 60.885 179.845 60.965C180.105 61.035 180.44 61.07 180.85 61.07C181.59 61.07 182.125 60.995 182.455 60.845C182.785 60.695 182.985 60.415 183.055 60.005L183.37 58.22L183.475 58.145L183.985 58.31L183.73 59.915L183.715 60.065C183.715 60.365 183.835 60.61 184.075 60.8C184.325 60.98 184.68 61.07 185.14 61.07H185.59C185.65 61.07 185.7 61.115 185.74 61.205C185.78 61.295 185.8 61.405 185.8 61.535C185.8 61.665 185.78 61.775 185.74 61.865C185.7 61.955 185.65 62 185.59 62H185.095C184.635 62 184.25 61.915 183.94 61.745C183.63 61.575 183.415 61.345 183.295 61.055C183.095 61.405 182.805 61.65 182.425 61.79C182.045 61.93 181.52 62 180.85 62ZM181.195 56.105V55.925L181.57 55.1L182.575 55.58V55.745L182.2 56.555L181.195 56.105ZM185.395 61.535C185.395 61.405 185.415 61.295 185.455 61.205C185.495 61.115 185.54 61.07 185.59 61.07H185.92C186.33 61.07 186.655 60.975 186.895 60.785C187.145 60.595 187.365 60.325 187.555 59.975L188.545 58.235C188.725 57.925 188.925 57.7 189.145 57.56C189.375 57.42 189.665 57.35 190.015 57.35C190.625 57.35 191.11 57.66 191.47 58.28C191.84 58.89 192.025 59.695 192.025 60.695C192.025 60.835 192.015 61.045 191.995 61.325L191.515 62.15C190.715 62.14 189.97 62.045 189.28 61.865C188.6 61.685 188.035 61.4 187.585 61.01C187.365 61.35 187.13 61.6 186.88 61.76C186.63 61.92 186.275 62 185.815 62H185.59C185.54 62 185.495 61.955 185.455 61.865C185.415 61.775 185.395 61.665 185.395 61.535ZM188.08 60.275C188.32 60.535 188.75 60.765 189.37 60.965C189.99 61.155 190.645 61.255 191.335 61.265C191.375 60.375 191.27 59.655 191.02 59.105C190.78 58.555 190.42 58.275 189.94 58.265C189.68 58.265 189.425 58.3 189.175 58.37L188.635 59.3L188.08 60.275ZM198.22 62.15C197.58 62.15 197.11 62.01 196.81 61.73C196.52 61.45 196.405 60.99 196.465 60.35L196.555 59.42L197.035 59.33L197.095 59.39L197.05 60.245C197.02 60.655 197.11 60.92 197.32 61.04C197.53 61.16 197.895 61.22 198.415 61.22C199.095 61.22 199.72 61.125 200.29 60.935C200.86 60.735 201.235 60.47 201.415 60.14C201.335 59.88 201.165 59.555 200.905 59.165C200.655 58.765 200.11 57.965 199.27 56.765L198.865 56.195L199.42 55.49L199.87 56.135C200.59 57.155 201.115 57.96 201.445 58.55C201.785 59.13 201.955 59.62 201.955 60.02C201.955 60.52 201.765 60.93 201.385 61.25C201.005 61.56 200.53 61.79 199.96 61.94C199.39 62.08 198.81 62.15 198.22 62.15ZM202.497 65.495C202.167 65.495 201.782 65.39 201.342 65.18L201.162 64.595L201.207 64.535C201.497 64.625 201.872 64.66 202.332 64.64C202.932 64.6 203.437 64.315 203.847 63.785C204.267 63.265 204.537 62.67 204.657 62C204.587 61.3 204.412 60.06 204.132 58.28L204.717 57.875L204.822 57.95C205.132 59.87 205.287 61.1 205.287 61.64C205.287 62.28 205.157 62.89 204.897 63.47C204.637 64.06 204.302 64.535 203.892 64.895C203.482 65.265 203.077 65.46 202.677 65.48L202.497 65.495ZM208.462 65.495C208.262 65.495 208.002 65.455 207.682 65.375C207.362 65.295 207.062 65.205 206.782 65.105L206.602 64.52L206.647 64.46C207.327 64.58 207.827 64.64 208.147 64.64C208.597 64.64 209.017 64.51 209.407 64.25C209.807 64 210.147 63.67 210.427 63.26C210.707 62.86 210.912 62.44 211.042 62H208.897C207.847 62 207.322 61.555 207.322 60.665C207.322 60.615 207.332 60.49 207.352 60.29C207.552 58.33 208.217 57.35 209.347 57.35C209.777 57.35 210.147 57.45 210.457 57.65C210.767 57.84 211.007 58.095 211.177 58.415C211.307 58.645 211.427 58.965 211.537 59.375C211.647 59.775 211.717 60.165 211.747 60.545L211.762 61.07H212.557C212.617 61.07 212.667 61.115 212.707 61.205C212.747 61.295 212.767 61.405 212.767 61.535C212.767 61.665 212.747 61.775 212.707 61.865C212.667 61.955 212.617 62 212.557 62H211.702C211.572 62.64 211.327 63.225 210.967 63.755C210.617 64.295 210.212 64.72 209.752 65.03C209.302 65.34 208.872 65.495 208.462 65.495ZM211.087 61.115C211.077 60.705 211.002 60.24 210.862 59.72C210.732 59.19 210.587 58.77 210.427 58.46C210.047 58.27 209.672 58.175 209.302 58.175C208.902 58.175 208.602 58.305 208.402 58.565C208.212 58.825 208.077 59.32 207.997 60.05C207.977 60.23 207.967 60.345 207.967 60.395C207.967 60.655 208.052 60.84 208.222 60.95C208.392 61.06 208.682 61.115 209.092 61.115H211.087ZM212.558 62C212.508 62 212.463 61.955 212.423 61.865C212.383 61.775 212.363 61.665 212.363 61.535C212.363 61.405 212.383 61.295 212.423 61.205C212.463 61.115 212.508 61.07 212.558 61.07H213.248C213.948 61.07 214.618 60.975 215.258 60.785C215.898 60.585 216.543 60.265 217.193 59.825L218.948 58.685L215.918 57.62C215.628 57.52 215.423 57.47 215.303 57.47C215.143 57.47 215.008 57.55 214.898 57.71L214.283 58.64H214.223L213.863 58.205L214.223 57.59C214.433 57.22 214.618 56.96 214.778 56.81C214.938 56.65 215.148 56.57 215.408 56.57C215.548 56.57 215.748 56.615 216.008 56.705C216.268 56.785 216.683 56.93 217.253 57.14C217.343 57.17 217.653 57.285 218.183 57.485C218.723 57.675 219.248 57.84 219.758 57.98C219.968 58.05 220.213 58.11 220.493 58.16L221.078 58.28L221.123 58.43L220.823 59.15L219.758 58.955L217.523 60.485C216.073 61.495 214.628 62 213.188 62H212.558ZM214.583 54.875V54.695L214.958 53.87L215.963 54.35V54.515L215.588 55.325L214.583 54.875ZM221.275 65.495C221.075 65.495 220.815 65.45 220.495 65.36C220.175 65.28 219.915 65.195 219.715 65.105L219.535 64.52L219.58 64.46C220.12 64.58 220.575 64.64 220.945 64.64C221.445 64.64 221.9 64.495 222.31 64.205C222.72 63.925 223.05 63.57 223.3 63.14C223.56 62.72 223.725 62.3 223.795 61.88C223.755 61.35 223.58 60.15 223.27 58.28L223.855 57.875L223.96 57.95L224.245 59.69C224.345 60.23 224.515 60.595 224.755 60.785C224.995 60.975 225.38 61.07 225.91 61.07H226.255C226.305 61.07 226.35 61.115 226.39 61.205C226.43 61.295 226.45 61.405 226.45 61.535C226.45 61.665 226.43 61.775 226.39 61.865C226.35 61.955 226.305 62 226.255 62H225.85C225.21 62 224.735 61.83 224.425 61.49V61.64C224.425 62.3 224.26 62.925 223.93 63.515C223.6 64.115 223.19 64.595 222.7 64.955C222.21 65.315 221.735 65.495 221.275 65.495ZM226.254 62C226.204 62 226.159 61.955 226.119 61.865C226.079 61.775 226.059 61.665 226.059 61.535C226.059 61.405 226.079 61.295 226.119 61.205C226.159 61.115 226.204 61.07 226.254 61.07C227.014 61.07 227.669 60.99 228.219 60.83C228.779 60.66 229.184 60.43 229.434 60.14L229.089 57.44L229.749 57.005L229.839 57.05C230.019 58.47 230.109 59.38 230.109 59.78C230.109 60.13 230.029 60.44 229.869 60.71C229.719 60.97 229.509 61.185 229.239 61.355C228.599 61.785 227.604 62 226.254 62ZM227.064 64.64V64.46L227.439 63.635L228.444 64.115V64.28L228.069 65.09L227.064 64.64Z" fill="black"/>
<path d="M101.093 62.15C99.7429 62.15 98.8379 61.935 98.3779 61.505C97.9279 61.075 97.7229 60.485 97.7629 59.735C97.8129 59.235 97.8679 58.83 97.9279 58.52L98.0929 57.545L98.5429 57.485L98.6329 57.575L98.3779 59.405C98.3579 59.565 98.3479 59.69 98.3479 59.78C98.3479 60.24 98.5629 60.595 98.9929 60.845C99.4229 61.095 100.203 61.22 101.333 61.22C102.563 61.22 103.518 61.185 104.198 61.115C104.878 61.045 105.373 60.925 105.683 60.755C106.003 60.575 106.193 60.325 106.253 60.005L106.568 58.22L106.673 58.145L107.183 58.31L106.928 59.915L106.913 60.065C106.913 60.365 107.033 60.61 107.273 60.8C107.513 60.98 107.863 61.07 108.323 61.07H108.788C108.848 61.07 108.893 61.115 108.923 61.205C108.963 61.295 108.983 61.405 108.983 61.535C108.983 61.675 108.963 61.79 108.923 61.88C108.893 61.96 108.848 62 108.788 62H108.293C107.813 62 107.418 61.91 107.108 61.73C106.798 61.55 106.583 61.305 106.463 60.995C106.193 61.495 105.588 61.815 104.648 61.955C103.718 62.085 102.533 62.15 101.093 62.15ZM102.773 56.66V56.495L103.133 55.73L104.048 56.18V56.33L103.688 57.065L102.773 56.66ZM100.763 56.78V56.615L101.108 55.85L102.038 56.3V56.45L101.678 57.185L100.763 56.78ZM108.787 62C108.737 62 108.692 61.955 108.652 61.865C108.612 61.775 108.592 61.665 108.592 61.535C108.592 61.405 108.612 61.295 108.652 61.205C108.692 61.115 108.737 61.07 108.787 61.07H109.252C110.162 61.07 110.922 61.005 111.532 60.875C112.152 60.735 112.637 60.51 112.987 60.2C113.057 59.78 113.092 59.375 113.092 58.985C112.372 59.175 111.647 59.27 110.917 59.27C110.397 59.27 110.007 59.165 109.747 58.955C109.487 58.745 109.352 58.42 109.342 57.98C109.342 57.92 109.352 57.78 109.372 57.56C109.482 56.55 109.702 55.81 110.032 55.34C110.372 54.86 110.822 54.62 111.382 54.62C111.822 54.62 112.192 54.72 112.492 54.92C112.792 55.12 113.027 55.375 113.197 55.685C113.387 56.035 113.537 56.49 113.647 57.05C113.757 57.61 113.812 58.15 113.812 58.67C113.812 59.84 113.552 60.66 113.032 61.13C112.672 61.45 112.167 61.675 111.517 61.805C110.867 61.935 110.172 62 109.432 62H108.787ZM111.112 58.385C111.742 58.385 112.392 58.32 113.062 58.19C113.032 57.75 112.957 57.3 112.837 56.84C112.717 56.38 112.587 56.005 112.447 55.715C112.087 55.535 111.712 55.445 111.322 55.445C110.942 55.445 110.647 55.58 110.437 55.85C110.237 56.11 110.097 56.6 110.017 57.32C110.007 57.41 110.002 57.525 110.002 57.665C110.002 57.925 110.082 58.11 110.242 58.22C110.412 58.33 110.702 58.385 111.112 58.385ZM111.532 52.805V52.64L111.892 51.875L112.807 52.325V52.475L112.447 53.21L111.532 52.805ZM109.522 52.925V52.76L109.867 51.995L110.797 52.445V52.595L110.437 53.33L109.522 52.925ZM116.908 65.495C116.708 65.495 116.448 65.455 116.128 65.375C115.808 65.295 115.508 65.205 115.228 65.105L115.048 64.52L115.093 64.46C115.773 64.58 116.273 64.64 116.593 64.64C117.073 64.64 117.523 64.495 117.943 64.205C118.363 63.915 118.713 63.545 118.993 63.095C119.283 62.645 119.473 62.19 119.563 61.73C118.803 61.91 118.063 62 117.343 62C116.293 62 115.768 61.555 115.768 60.665C115.768 60.615 115.778 60.49 115.798 60.29C115.998 58.33 116.663 57.35 117.793 57.35C118.223 57.35 118.593 57.45 118.903 57.65C119.213 57.84 119.453 58.095 119.623 58.415C119.773 58.705 119.908 59.115 120.028 59.645C120.158 60.165 120.223 60.655 120.223 61.115C120.223 61.885 120.048 62.605 119.698 63.275C119.348 63.955 118.913 64.495 118.393 64.895C117.873 65.295 117.378 65.495 116.908 65.495ZM117.538 61.115C118.178 61.115 118.843 61.05 119.533 60.92C119.503 60.51 119.423 60.07 119.293 59.6C119.163 59.12 119.023 58.74 118.873 58.46C118.493 58.27 118.118 58.175 117.748 58.175C117.348 58.175 117.048 58.305 116.848 58.565C116.658 58.825 116.523 59.32 116.443 60.05C116.423 60.23 116.413 60.34 116.413 60.38C116.413 60.65 116.493 60.84 116.653 60.95C116.823 61.06 117.118 61.115 117.538 61.115ZM121.256 65.495C120.926 65.495 120.541 65.39 120.101 65.18L119.921 64.595L119.966 64.535C120.256 64.625 120.631 64.66 121.091 64.64C121.511 64.62 121.886 64.47 122.216 64.19C122.546 63.92 122.816 63.58 123.026 63.17C123.236 62.76 123.371 62.34 123.431 61.91C123.381 61.5 123.271 60.74 123.101 59.63L122.891 58.28L123.476 57.875L123.581 57.95L123.866 59.69C123.966 60.23 124.136 60.595 124.376 60.785C124.616 60.975 125.001 61.07 125.531 61.07H125.861C125.921 61.07 125.971 61.115 126.011 61.205C126.051 61.295 126.071 61.405 126.071 61.535C126.071 61.665 126.051 61.775 126.011 61.865C125.971 61.955 125.921 62 125.861 62H125.471C124.811 62 124.336 61.825 124.046 61.475V61.625C124.046 62.275 123.916 62.89 123.656 63.47C123.396 64.06 123.061 64.535 122.651 64.895C122.251 65.265 121.846 65.46 121.436 65.48L121.256 65.495ZM125.867 62C125.817 62 125.772 61.955 125.732 61.865C125.692 61.775 125.672 61.665 125.672 61.535C125.672 61.405 125.692 61.295 125.732 61.205C125.772 61.115 125.817 61.07 125.867 61.07H126.347C126.937 61.07 127.382 60.985 127.682 60.815C127.992 60.635 128.227 60.315 128.387 59.855L128.912 58.445L129.032 58.4L129.482 58.625L129.002 60.035C128.982 60.115 128.942 60.235 128.882 60.395C129.012 60.605 129.247 60.77 129.587 60.89C129.927 61.01 130.312 61.07 130.742 61.07C131.412 61.07 131.887 60.975 132.167 60.785C132.447 60.595 132.592 60.325 132.602 59.975L132.617 58.955L133.232 58.94V60.725C133.372 60.825 133.557 60.91 133.787 60.98C134.017 61.04 134.247 61.07 134.477 61.07C134.907 61.07 135.232 60.96 135.452 60.74L135.032 57.65L135.692 57.215L135.782 57.275C135.872 57.955 135.962 58.66 136.052 59.39C136.092 59.77 136.112 60.04 136.112 60.2C136.112 60.55 136.057 60.84 135.947 61.07C135.817 61.37 135.602 61.6 135.302 61.76C135.002 61.92 134.667 62 134.297 62C133.967 62 133.647 61.94 133.337 61.82C133.027 61.7 132.822 61.535 132.722 61.325C132.532 61.535 132.257 61.7 131.897 61.82C131.537 61.94 131.137 62 130.697 62C130.177 62 129.717 61.92 129.317 61.76C128.927 61.59 128.662 61.365 128.522 61.085C128.322 61.405 128.047 61.64 127.697 61.79C127.357 61.93 126.927 62 126.407 62H125.867Z" fill="black"/>
<path d="M248.289 30C247.169 30 246.335 29.6933 245.789 29.08C245.242 28.4667 244.962 27.5333 244.949 26.28L244.849 16.78L246.889 16.24V25.22C246.889 25.9 247.009 26.36 247.249 26.6C247.502 26.8267 247.929 26.94 248.529 26.94C248.849 26.94 249.215 26.92 249.629 26.88C249.389 26.5333 249.269 26.1 249.269 25.58C249.269 25.2867 249.329 24.94 249.449 24.54C249.742 23.5933 250.002 22.94 250.229 22.58L249.409 22.32L249.929 20.02L250.229 19.86L255.189 21.46C256.322 21.82 257.209 22.2267 257.849 22.68C258.489 23.1333 258.949 23.6667 259.229 24.28C259.509 24.8933 259.662 25.6533 259.689 26.56C259.689 26.8533 259.662 27.4133 259.609 28.24L258.389 30.04L254.469 29.58C253.469 29.4733 252.715 29.3267 252.209 29.14C251.622 29.42 250.975 29.6333 250.269 29.78C249.562 29.9267 248.902 30 248.289 30ZM252.689 26.56C253.129 26.2933 253.475 26 253.729 25.68C253.982 25.36 254.109 25.06 254.109 24.78C254.109 24.4867 254.009 24.2267 253.809 24C253.609 23.7733 253.329 23.5933 252.969 23.46C252.609 23.3267 252.175 23.24 251.669 23.2C251.469 23.52 251.269 24.0467 251.069 24.78C251.029 24.9133 251.009 25.04 251.009 25.16C251.009 25.8267 251.569 26.2933 252.689 26.56ZM257.869 27.3C257.882 27.0333 257.875 26.6933 257.849 26.28C257.769 25.8133 257.602 25.4267 257.349 25.12C257.095 24.8133 256.682 24.5667 256.109 24.38L255.529 24.18V24.76C255.515 25.4933 255.282 26.2067 254.829 26.9L255.469 26.98L257.869 27.3ZM269.909 30.2C268.016 30.2 266.696 29.92 265.949 29.36C265.203 28.7867 264.829 27.9667 264.829 26.9C264.829 26.3533 264.923 25.48 265.109 24.28C265.176 23.96 265.243 23.5467 265.309 23.04L266.809 22.82L266.989 23L266.669 25.28C266.656 25.36 266.649 25.4733 266.649 25.62C266.649 25.9533 266.749 26.2333 266.949 26.46C267.149 26.6733 267.516 26.84 268.049 26.96C268.583 27.08 269.343 27.14 270.329 27.14C272.023 27.14 273.403 27.0667 274.469 26.92C275.536 26.76 276.336 26.5667 276.869 26.34L276.369 23.1L278.369 21.84L278.589 21.98L278.669 22.6C278.776 23.3733 278.863 24.06 278.929 24.66C279.009 25.26 279.049 25.7333 279.049 26.08C279.049 27.3867 278.716 28.2867 278.049 28.78C277.343 29.3 276.236 29.6667 274.729 29.88C273.236 30.0933 271.629 30.2 269.909 30.2ZM271.629 21.88V21.58L272.369 19.98L274.249 20.86V21.14L273.509 22.72L271.629 21.88ZM268.769 22.04V21.74L269.509 20.14L271.389 21.02V21.3L270.649 22.88L268.769 22.04ZM279.963 34.72C279.67 34.72 279.29 34.6533 278.823 34.52C278.357 34.4 277.95 34.2533 277.603 34.08L277.083 32.22L277.223 32.02C277.89 32.0867 278.463 32.12 278.943 32.12C280.477 32.12 281.703 31.2733 282.623 29.58C282.463 28.4333 282.163 26.6733 281.723 24.3L283.523 23.14L283.763 23.3C284.043 24.7533 284.237 25.8733 284.343 26.66C284.463 27.4467 284.523 28.0933 284.523 28.6C284.523 29.6667 284.297 30.6667 283.843 31.6C283.403 32.5467 282.83 33.3 282.123 33.86C281.417 34.4333 280.697 34.72 279.963 34.72ZM293.686 34.72C292.899 33.8933 292.293 33.08 291.866 32.28C291.439 31.48 291.206 30.7133 291.166 29.98L290.306 30C289.079 30 288.179 29.7 287.606 29.1C287.033 28.5 286.739 27.56 286.726 26.28L286.626 16.78L288.666 16.24V25.22C288.666 25.9 288.786 26.36 289.026 26.6C289.279 26.8267 289.706 26.94 290.306 26.94L291.326 26.92C291.686 25.16 292.126 23.4 292.646 21.64L294.566 20.32L296.026 21.92C296.719 22.6667 297.173 23.2933 297.386 23.8C297.599 24.2933 297.706 24.8133 297.706 25.36C297.706 26.1467 297.519 26.82 297.146 27.38C296.746 27.98 296.226 28.48 295.586 28.88C294.946 29.2667 294.126 29.5533 293.126 29.74C293.219 30.22 293.406 30.68 293.686 31.12C293.979 31.5733 294.353 32.0267 294.806 32.48L296.286 30C296.726 29.2667 297.113 28.6933 297.446 28.28C297.793 27.8533 298.179 27.5267 298.606 27.3C299.046 27.06 299.566 26.94 300.166 26.94H300.786C300.933 26.94 301.053 27.0867 301.146 27.38C301.253 27.6733 301.306 28.0333 301.306 28.46C301.306 28.8867 301.253 29.2533 301.146 29.56C301.053 29.8533 300.933 30 300.786 30H300.046C299.579 30 299.199 30.0667 298.906 30.2C298.613 30.3467 298.359 30.56 298.146 30.84C297.933 31.1333 297.646 31.5933 297.286 32.22L295.826 34.72H293.686ZM293.086 26.94C293.873 26.9 294.499 26.7533 294.966 26.5C295.446 26.2333 295.779 25.9467 295.966 25.64C295.966 25.2667 295.366 24.4133 294.166 23.08C293.899 23.9067 293.686 24.5933 293.526 25.14C293.379 25.6733 293.233 26.2733 293.086 26.94ZM300.265 28.46C300.265 28.0333 300.318 27.6733 300.425 27.38C300.518 27.0867 300.638 26.94 300.785 26.94H301.205C301.725 26.94 302.138 26.8267 302.445 26.6C302.765 26.3733 303.038 26.06 303.265 25.66L304.345 23.74C304.625 23.2333 304.958 22.8533 305.345 22.6C305.732 22.3333 306.198 22.2 306.745 22.2C307.825 22.2 308.658 22.6667 309.245 23.6C309.832 24.52 310.125 25.7667 310.125 27.34C310.125 27.7 310.118 27.9733 310.105 28.16L308.825 30.2C307.745 30.2 306.725 30.0867 305.765 29.86C304.818 29.62 304.038 29.24 303.425 28.72C303.118 29.16 302.805 29.4867 302.485 29.7C302.165 29.9 301.698 30 301.085 30H300.785C300.638 30 300.518 29.8533 300.425 29.56C300.318 29.2533 300.265 28.8867 300.265 28.46ZM304.765 26.54C305.045 26.7933 305.518 27.02 306.185 27.22C306.852 27.4067 307.552 27.5133 308.285 27.54C308.298 26.7133 308.158 26.0267 307.865 25.48C307.572 24.9333 307.165 24.66 306.645 24.66C306.458 24.66 306.165 24.7067 305.765 24.8L304.765 26.54Z" fill="black"/>
<path d="M260.101 62.15C258.751 62.15 257.846 61.935 257.386 61.505C256.936 61.075 256.731 60.485 256.771 59.735C256.821 59.235 256.876 58.83 256.936 58.52L257.101 57.545L257.551 57.485L257.641 57.575L257.386 59.405C257.366 59.565 257.356 59.69 257.356 59.78C257.356 60.24 257.571 60.595 258.001 60.845C258.431 61.095 259.211 61.22 260.341 61.22C261.571 61.22 262.526 61.185 263.206 61.115C263.886 61.045 264.381 60.925 264.691 60.755C265.011 60.575 265.201 60.325 265.261 60.005L265.576 58.22L265.681 58.145L266.191 58.31L265.936 59.915L265.921 60.065C265.921 60.365 266.041 60.61 266.281 60.8C266.521 60.98 266.871 61.07 267.331 61.07H267.796C267.856 61.07 267.901 61.115 267.931 61.205C267.971 61.295 267.991 61.405 267.991 61.535C267.991 61.675 267.971 61.79 267.931 61.88C267.901 61.96 267.856 62 267.796 62H267.301C266.821 62 266.426 61.91 266.116 61.73C265.806 61.55 265.591 61.305 265.471 60.995C265.201 61.495 264.596 61.815 263.656 61.955C262.726 62.085 261.541 62.15 260.101 62.15ZM261.781 56.66V56.495L262.141 55.73L263.056 56.18V56.33L262.696 57.065L261.781 56.66ZM259.771 56.78V56.615L260.116 55.85L261.046 56.3V56.45L260.686 57.185L259.771 56.78ZM267.795 62C267.745 62 267.7 61.955 267.66 61.865C267.62 61.775 267.6 61.665 267.6 61.535C267.6 61.405 267.62 61.295 267.66 61.205C267.7 61.115 267.745 61.07 267.795 61.07H268.545C269.575 61.04 270.36 60.95 270.9 60.8C271.45 60.64 271.84 60.42 272.07 60.14L271.725 57.44L272.385 57.005L272.49 57.05C272.66 58.54 272.745 59.45 272.745 59.78C272.745 60.42 272.495 60.915 271.995 61.265C271.355 61.705 270.21 61.95 268.56 62H267.795ZM269.805 64.58V64.415L270.165 63.65L271.08 64.1V64.25L270.72 64.985L269.805 64.58ZM267.87 64.7V64.535L268.215 63.77L269.13 64.22V64.37L268.785 65.105L267.87 64.7ZM273.276 65.495C272.946 65.495 272.561 65.39 272.121 65.18L271.941 64.595L271.986 64.535C272.276 64.625 272.651 64.66 273.111 64.64C273.531 64.62 273.906 64.47 274.236 64.19C274.566 63.92 274.836 63.58 275.046 63.17C275.256 62.76 275.391 62.34 275.451 61.91C275.401 61.5 275.291 60.74 275.121 59.63L274.911 58.28L275.496 57.875L275.601 57.95L275.886 59.69C275.986 60.23 276.156 60.595 276.396 60.785C276.636 60.975 277.021 61.07 277.551 61.07H277.881C277.941 61.07 277.991 61.115 278.031 61.205C278.071 61.295 278.091 61.405 278.091 61.535C278.091 61.665 278.071 61.775 278.031 61.865C277.991 61.955 277.941 62 277.881 62H277.491C276.831 62 276.356 61.825 276.066 61.475V61.625C276.066 62.275 275.936 62.89 275.676 63.47C275.416 64.06 275.081 64.535 274.671 64.895C274.271 65.265 273.866 65.46 273.456 65.48L273.276 65.495ZM277.888 62C277.838 62 277.793 61.955 277.753 61.865C277.713 61.775 277.693 61.665 277.693 61.535C277.693 61.405 277.713 61.295 277.753 61.205C277.793 61.115 277.838 61.07 277.888 61.07C278.648 61.07 279.303 60.99 279.853 60.83C280.413 60.66 280.818 60.43 281.068 60.14L280.723 57.44L281.383 57.005L281.473 57.05C281.653 58.47 281.743 59.38 281.743 59.78C281.743 60.13 281.663 60.44 281.503 60.71C281.353 60.97 281.143 61.185 280.873 61.355C280.233 61.785 279.238 62 277.888 62ZM280.108 64.58V64.415L280.468 63.65L281.383 64.1V64.25L281.023 64.985L280.108 64.58ZM278.173 64.7V64.535L278.518 63.77L279.433 64.22V64.37L279.088 65.105L278.173 64.7ZM285.465 62.15C284.825 62.15 284.355 62.01 284.055 61.73C283.765 61.45 283.65 60.99 283.71 60.35L283.8 59.42L284.28 59.33L284.34 59.39L284.295 60.245C284.265 60.655 284.355 60.92 284.565 61.04C284.775 61.16 285.14 61.22 285.66 61.22C286.13 61.22 286.59 61.15 287.04 61.01C287.5 60.87 287.835 60.695 288.045 60.485L287.55 55.97L288.15 55.52L288.255 55.565L288.645 59.345C288.715 60.005 288.87 60.46 289.11 60.71C289.36 60.95 289.76 61.07 290.31 61.07H290.685C290.745 61.07 290.795 61.115 290.835 61.205C290.875 61.295 290.895 61.405 290.895 61.535C290.895 61.665 290.875 61.775 290.835 61.865C290.795 61.955 290.745 62 290.685 62H290.235C289.305 62 288.695 61.675 288.405 61.025C288.195 61.375 287.78 61.65 287.16 61.85C286.55 62.05 285.985 62.15 285.465 62.15ZM290.495 61.535C290.495 61.405 290.515 61.295 290.555 61.205C290.595 61.115 290.64 61.07 290.69 61.07H291.02C291.43 61.07 291.755 60.975 291.995 60.785C292.245 60.595 292.465 60.325 292.655 59.975L293.645 58.235C293.825 57.925 294.025 57.7 294.245 57.56C294.475 57.42 294.765 57.35 295.115 57.35C295.725 57.35 296.21 57.66 296.57 58.28C296.94 58.89 297.125 59.695 297.125 60.695C297.125 60.835 297.115 61.045 297.095 61.325L296.615 62.15C295.815 62.14 295.07 62.045 294.38 61.865C293.7 61.685 293.135 61.4 292.685 61.01C292.465 61.35 292.23 61.6 291.98 61.76C291.73 61.92 291.375 62 290.915 62H290.69C290.64 62 290.595 61.955 290.555 61.865C290.515 61.775 290.495 61.665 290.495 61.535ZM293.18 60.275C293.42 60.535 293.85 60.765 294.47 60.965C295.09 61.155 295.745 61.255 296.435 61.265C296.475 60.375 296.37 59.655 296.12 59.105C295.88 58.555 295.52 58.275 295.04 58.265C294.78 58.265 294.525 58.3 294.275 58.37L293.735 59.3L293.18 60.275Z" fill="black"/>
<path d="M284.135 99.195C283.255 99.195 282.565 99 282.065 98.61C281.575 98.22 281.33 97.605 281.33 96.765C281.33 96.085 281.495 95.06 281.825 93.69L282.29 93.72L282.35 93.81C282.06 95.11 281.915 96.01 281.915 96.51C281.915 97.16 282.115 97.615 282.515 97.875C282.925 98.135 283.535 98.265 284.345 98.265C285.175 98.265 285.935 98.145 286.625 97.905C287.315 97.675 287.88 97.415 288.32 97.125L285.245 95.955L285.2 95.85L285.485 95.07H289.61C289.67 95.07 289.72 95.115 289.76 95.205C289.8 95.295 289.82 95.405 289.82 95.535C289.82 95.665 289.8 95.775 289.76 95.865C289.72 95.955 289.67 96 289.61 96H287.96C287.68 96 287.405 95.96 287.135 95.88C286.875 95.8 286.71 95.75 286.64 95.73L286.61 95.79C286.98 95.92 287.35 96.06 287.72 96.21C288.1 96.36 288.385 96.48 288.575 96.57C288.835 96.71 288.965 96.9 288.965 97.14C288.965 97.29 288.91 97.44 288.8 97.59C288.7 97.75 288.56 97.895 288.38 98.025C287.92 98.365 287.325 98.645 286.595 98.865C285.875 99.085 285.055 99.195 284.135 99.195ZM289.604 96C289.554 96 289.509 95.955 289.469 95.865C289.429 95.775 289.409 95.665 289.409 95.535C289.409 95.405 289.429 95.295 289.469 95.205C289.509 95.115 289.554 95.07 289.604 95.07H290.669C291.239 95.07 291.679 94.995 291.989 94.845C292.299 94.685 292.484 94.405 292.544 94.005L292.874 92.22L292.964 92.145L293.474 92.31L293.234 93.915C293.224 93.955 293.219 94.015 293.219 94.095C293.219 94.375 293.339 94.61 293.579 94.8C293.829 94.98 294.179 95.07 294.629 95.07H295.094C295.144 95.07 295.189 95.115 295.229 95.205C295.269 95.295 295.289 95.405 295.289 95.535C295.289 95.665 295.269 95.775 295.229 95.865C295.189 95.955 295.144 96 295.094 96H294.599C294.129 96 293.739 95.915 293.429 95.745C293.119 95.575 292.904 95.34 292.784 95.04C292.584 95.39 292.304 95.64 291.944 95.79C291.584 95.93 291.139 96 290.609 96H289.604ZM291.524 90.27V90.09L291.899 89.265L292.904 89.745V89.91L292.529 90.72L291.524 90.27ZM295.097 96C295.047 96 295.002 95.955 294.962 95.865C294.922 95.775 294.902 95.665 294.902 95.535C294.902 95.405 294.922 95.295 294.962 95.205C295.002 95.115 295.047 95.07 295.097 95.07H295.562C296.472 95.07 297.232 95.005 297.842 94.875C298.462 94.735 298.947 94.51 299.297 94.2C299.367 93.78 299.402 93.375 299.402 92.985C298.682 93.175 297.957 93.27 297.227 93.27C296.707 93.27 296.317 93.165 296.057 92.955C295.797 92.745 295.662 92.42 295.652 91.98C295.652 91.92 295.662 91.78 295.682 91.56C295.792 90.55 296.012 89.81 296.342 89.34C296.682 88.86 297.132 88.62 297.692 88.62C298.132 88.62 298.502 88.72 298.802 88.92C299.102 89.12 299.337 89.375 299.507 89.685C299.697 90.035 299.847 90.49 299.957 91.05C300.067 91.61 300.122 92.15 300.122 92.67C300.122 93.84 299.862 94.66 299.342 95.13C298.982 95.45 298.477 95.675 297.827 95.805C297.177 95.935 296.482 96 295.742 96H295.097ZM297.422 92.385C298.052 92.385 298.702 92.32 299.372 92.19C299.342 91.75 299.267 91.3 299.147 90.84C299.027 90.38 298.897 90.005 298.757 89.715C298.397 89.535 298.022 89.445 297.632 89.445C297.252 89.445 296.957 89.58 296.747 89.85C296.547 90.11 296.407 90.6 296.327 91.32C296.317 91.41 296.312 91.525 296.312 91.665C296.312 91.925 296.392 92.11 296.552 92.22C296.722 92.33 297.012 92.385 297.422 92.385ZM296.987 86.82V86.64L297.362 85.815L298.367 86.295V86.46L297.992 87.27L296.987 86.82Z" fill="black"/>
</svg>
