<svg width="22" height="22" viewBox="0 0 22 22" fill="none" xmlns="http://www.w3.org/2000/svg">
<g id="briefcase">
<path id="Vector" d="M18.334 6.41675H3.66732C2.6548 6.41675 1.83398 7.23756 1.83398 8.25008V17.4167C1.83398 18.4293 2.6548 19.2501 3.66732 19.2501H18.334C19.3465 19.2501 20.1673 18.4293 20.1673 17.4167V8.25008C20.1673 7.23756 19.3465 6.41675 18.334 6.41675Z" stroke="#4A4E50" stroke-width="1.83333" stroke-linecap="round" stroke-linejoin="round"/>
<path id="Vector_2" d="M14.6673 19.25V4.58333C14.6673 4.0971 14.4742 3.63079 14.1303 3.28697C13.7865 2.94315 13.3202 2.75 12.834 2.75H9.16732C8.68109 2.75 8.21477 2.94315 7.87096 3.28697C7.52714 3.63079 7.33398 4.0971 7.33398 4.58333V19.25" stroke="#4A4E50" stroke-width="1.83333" stroke-linecap="round" stroke-linejoin="round"/>
</g>
</svg>
