<svg width="15" height="19" viewBox="0 0 15 19" fill="none" xmlns="http://www.w3.org/2000/svg">
<path id="Vector" d="M12.4688 5.9375H1.78125C0.79748 5.9375 0 6.73498 0 7.71875V16.0312C0 17.015 0.79748 17.8125 1.78125 17.8125H2.375V18.4062C2.375 18.7343 2.6407 19 2.96875 19H4.15625C4.4843 19 4.75 18.7343 4.75 18.4062V17.8125H9.5V18.4062C9.5 18.7343 9.7657 19 10.0938 19H11.2812C11.6093 19 11.875 18.7343 11.875 18.4062V17.8125H12.4688C13.4525 17.8125 14.25 17.015 14.25 16.0312V7.71875C14.25 6.73498 13.4525 5.9375 12.4688 5.9375ZM11.875 13.9531C11.875 14.1171 11.7421 14.25 11.5781 14.25H2.67188C2.50785 14.25 2.375 14.1171 2.375 13.9531V13.3594C2.375 13.1954 2.50785 13.0625 2.67188 13.0625H11.5781C11.7421 13.0625 11.875 13.1954 11.875 13.3594V13.9531ZM11.875 10.3906C11.875 10.5546 11.7421 10.6875 11.5781 10.6875H2.67188C2.50785 10.6875 2.375 10.5546 2.375 10.3906V9.79688C2.375 9.63285 2.50785 9.5 2.67188 9.5H11.5781C11.7421 9.5 11.875 9.63285 11.875 9.79688V10.3906ZM5.34375 1.78125H8.90625V4.75H10.6875V1.78125C10.6875 0.79748 9.89002 0 8.90625 0H5.34375C4.35998 0 3.5625 0.79748 3.5625 1.78125V4.75H5.34375V1.78125Z" fill="#434343"/>
</svg>
